<svg width="1176" height="909" viewBox="0 0 1176 909" fill="none" xmlns="http://www.w3.org/2000/svg">
<rect x="0.5" y="0.5" width="1175" height="908" fill="#F3F3F3"/>
<g clip-path="url(#clip0)">
<g filter="url(#filter0_d)">
<rect y="844" width="1176" height="65" fill="#DBDBDB"/>
</g>
<path d="M36.5566 877.502C36.5566 878.1 36.3867 878.557 36.0469 878.873C35.7109 879.186 35.2344 879.342 34.6172 879.342C34.0039 879.342 33.5117 879.137 33.1406 878.727C32.7734 878.312 32.5898 877.75 32.5898 877.039V876.395C32.5898 875.707 32.7754 875.158 33.1465 874.748C33.5215 874.334 34.0117 874.127 34.6172 874.127C35.2422 874.127 35.7227 874.287 36.0586 874.607C36.3945 874.928 36.5625 875.379 36.5625 875.961H35.707C35.707 875.574 35.6133 875.299 35.4258 875.135C35.2422 874.967 34.9727 874.883 34.6172 874.883C34.25 874.883 33.9609 875.018 33.75 875.287C33.5391 875.557 33.4336 875.932 33.4336 876.412V877.074C33.4336 877.543 33.5391 877.912 33.75 878.182C33.9609 878.451 34.25 878.586 34.6172 878.586C34.9766 878.586 35.2461 878.504 35.4258 878.34C35.6094 878.176 35.7012 877.896 35.7012 877.502H36.5566ZM31.207 876.729C31.207 877.4 31.3633 878.023 31.6758 878.598C31.9883 879.168 32.4121 879.615 32.9473 879.939C33.4863 880.264 34.0684 880.426 34.6934 880.426C35.3184 880.426 35.8984 880.264 36.4336 879.939C36.9688 879.615 37.3926 879.168 37.7051 878.598C38.0176 878.023 38.1738 877.4 38.1738 876.729C38.1738 876.064 38.0195 875.449 37.7109 874.883C37.4023 874.316 36.9785 873.871 36.4395 873.547C35.9043 873.219 35.3223 873.055 34.6934 873.055C34.0684 873.055 33.4863 873.217 32.9473 873.541C32.4082 873.861 31.9824 874.307 31.6699 874.877C31.3613 875.447 31.207 876.064 31.207 876.729ZM30.5332 876.729C30.5332 875.939 30.7148 875.207 31.0781 874.531C31.4453 873.855 31.9512 873.324 32.5957 872.938C33.2441 872.547 33.9434 872.352 34.6934 872.352C35.4434 872.352 36.1406 872.547 36.7852 872.938C37.4297 873.324 37.9336 873.855 38.2969 874.531C38.6641 875.207 38.8477 875.939 38.8477 876.729C38.8477 877.498 38.6719 878.219 38.3203 878.891C37.9688 879.562 37.4688 880.104 36.8203 880.514C36.1758 880.92 35.4668 881.123 34.6934 881.123C33.9238 881.123 33.2148 880.922 32.5664 880.52C31.9219 880.113 31.4219 879.574 31.0664 878.902C30.7109 878.23 30.5332 877.506 30.5332 876.729ZM48.709 881H43.1191V880.221L46.0723 876.939C46.5098 876.443 46.8105 876.041 46.9746 875.732C47.1426 875.42 47.2266 875.098 47.2266 874.766C47.2266 874.32 47.0918 873.955 46.8223 873.67C46.5527 873.385 46.1934 873.242 45.7441 873.242C45.2051 873.242 44.7852 873.396 44.4844 873.705C44.1875 874.01 44.0391 874.436 44.0391 874.982H42.9551C42.9551 874.197 43.207 873.562 43.7109 873.078C44.2188 872.594 44.8965 872.352 45.7441 872.352C46.5371 872.352 47.1641 872.561 47.625 872.979C48.0859 873.393 48.3164 873.945 48.3164 874.637C48.3164 875.477 47.7812 876.477 46.7109 877.637L44.4258 880.115H48.709V881ZM55.207 877.361C55.207 878.631 54.9902 879.574 54.5566 880.191C54.123 880.809 53.4453 881.117 52.5234 881.117C51.6133 881.117 50.9395 880.816 50.502 880.215C50.0645 879.609 49.8379 878.707 49.8223 877.508V876.061C49.8223 874.807 50.0391 873.875 50.4727 873.266C50.9062 872.656 51.5859 872.352 52.5117 872.352C53.4297 872.352 54.1055 872.646 54.5391 873.236C54.9727 873.822 55.1953 874.729 55.207 875.955V877.361ZM54.123 875.879C54.123 874.961 53.9941 874.293 53.7363 873.875C53.4785 873.453 53.0703 873.242 52.5117 873.242C51.957 873.242 51.5527 873.451 51.2988 873.869C51.0449 874.287 50.9141 874.93 50.9062 875.797V877.531C50.9062 878.453 51.0391 879.135 51.3047 879.576C51.5742 880.014 51.9805 880.232 52.5234 880.232C53.0586 880.232 53.4551 880.025 53.7129 879.611C53.9746 879.197 54.1113 878.545 54.123 877.654V875.879ZM62.1855 881H56.5957V880.221L59.5488 876.939C59.9863 876.443 60.2871 876.041 60.4512 875.732C60.6191 875.42 60.7031 875.098 60.7031 874.766C60.7031 874.32 60.5684 873.955 60.2988 873.67C60.0293 873.385 59.6699 873.242 59.2207 873.242C58.6816 873.242 58.2617 873.396 57.9609 873.705C57.6641 874.01 57.5156 874.436 57.5156 874.982H56.4316C56.4316 874.197 56.6836 873.562 57.1875 873.078C57.6953 872.594 58.373 872.352 59.2207 872.352C60.0137 872.352 60.6406 872.561 61.1016 872.979C61.5625 873.393 61.793 873.945 61.793 874.637C61.793 875.477 61.2578 876.477 60.1875 877.637L57.9023 880.115H62.1855V881ZM68.6836 877.361C68.6836 878.631 68.4668 879.574 68.0332 880.191C67.5996 880.809 66.9219 881.117 66 881.117C65.0898 881.117 64.416 880.816 63.9785 880.215C63.541 879.609 63.3145 878.707 63.2988 877.508V876.061C63.2988 874.807 63.5156 873.875 63.9492 873.266C64.3828 872.656 65.0625 872.352 65.9883 872.352C66.9062 872.352 67.582 872.646 68.0156 873.236C68.4492 873.822 68.6719 874.729 68.6836 875.955V877.361ZM67.5996 875.879C67.5996 874.961 67.4707 874.293 67.2129 873.875C66.9551 873.453 66.5469 873.242 65.9883 873.242C65.4336 873.242 65.0293 873.451 64.7754 873.869C64.5215 874.287 64.3906 874.93 64.3828 875.797V877.531C64.3828 878.453 64.5156 879.135 64.7812 879.576C65.0508 880.014 65.457 880.232 66 880.232C66.5352 880.232 66.9316 880.025 67.1895 879.611C67.4512 879.197 67.5879 878.545 67.5996 877.654V875.879ZM77.4375 880.08H81.4805V881H76.3066V872.469H77.4375V880.08ZM83.7715 881H82.6875V874.66H83.7715V881ZM82.5996 872.979C82.5996 872.803 82.6523 872.654 82.7578 872.533C82.8672 872.412 83.0273 872.352 83.2383 872.352C83.4492 872.352 83.6094 872.412 83.7188 872.533C83.8281 872.654 83.8828 872.803 83.8828 872.979C83.8828 873.154 83.8281 873.301 83.7188 873.418C83.6094 873.535 83.4492 873.594 83.2383 873.594C83.0273 873.594 82.8672 873.535 82.7578 873.418C82.6523 873.301 82.5996 873.154 82.5996 872.979ZM90.8789 877.9C90.8789 878.869 90.6562 879.648 90.2109 880.238C89.7656 880.824 89.168 881.117 88.418 881.117C87.6172 881.117 86.998 880.834 86.5605 880.268L86.5078 881H85.5117V872H86.5957V875.357C87.0332 874.814 87.6367 874.543 88.4062 874.543C89.1758 874.543 89.7793 874.834 90.2168 875.416C90.6582 875.998 90.8789 876.795 90.8789 877.807V877.9ZM89.7949 877.777C89.7949 877.039 89.6523 876.469 89.3672 876.066C89.082 875.664 88.6719 875.463 88.1367 875.463C87.4219 875.463 86.9082 875.795 86.5957 876.459V879.201C86.9277 879.865 87.4453 880.197 88.1484 880.197C88.668 880.197 89.0723 879.996 89.3613 879.594C89.6504 879.191 89.7949 878.586 89.7949 877.777ZM94.8809 881.117C94.0215 881.117 93.3223 880.836 92.7832 880.273C92.2441 879.707 91.9746 878.951 91.9746 878.006V877.807C91.9746 877.178 92.0938 876.617 92.332 876.125C92.5742 875.629 92.9102 875.242 93.3398 874.965C93.7734 874.684 94.2422 874.543 94.7461 874.543C95.5703 874.543 96.2109 874.814 96.668 875.357C97.125 875.9 97.3535 876.678 97.3535 877.689V878.141H93.0586C93.0742 878.766 93.2559 879.271 93.6035 879.658C93.9551 880.041 94.4004 880.232 94.9395 880.232C95.3223 880.232 95.6465 880.154 95.9121 879.998C96.1777 879.842 96.4102 879.635 96.6094 879.377L97.2715 879.893C96.7402 880.709 95.9434 881.117 94.8809 881.117ZM94.7461 875.434C94.3086 875.434 93.9414 875.594 93.6445 875.914C93.3477 876.23 93.1641 876.676 93.0938 877.25H96.2695V877.168C96.2383 876.617 96.0898 876.191 95.8242 875.891C95.5586 875.586 95.1992 875.434 94.7461 875.434ZM101.678 875.633C101.514 875.605 101.336 875.592 101.145 875.592C100.434 875.592 99.9512 875.895 99.6973 876.5V881H98.6133V874.66H99.668L99.6855 875.393C100.041 874.826 100.545 874.543 101.197 874.543C101.408 874.543 101.568 874.57 101.678 874.625V875.633ZM109.125 878.293C109.02 879.195 108.686 879.893 108.123 880.385C107.564 880.873 106.82 881.117 105.891 881.117C104.883 881.117 104.074 880.756 103.465 880.033C102.859 879.311 102.557 878.344 102.557 877.133V876.312C102.557 875.52 102.697 874.822 102.979 874.221C103.264 873.619 103.666 873.158 104.186 872.838C104.705 872.514 105.307 872.352 105.99 872.352C106.896 872.352 107.623 872.605 108.17 873.113C108.717 873.617 109.035 874.316 109.125 875.211H107.994C107.896 874.531 107.684 874.039 107.355 873.734C107.031 873.43 106.576 873.277 105.99 873.277C105.271 873.277 104.707 873.543 104.297 874.074C103.891 874.605 103.688 875.361 103.688 876.342V877.168C103.688 878.094 103.881 878.83 104.268 879.377C104.654 879.924 105.195 880.197 105.891 880.197C106.516 880.197 106.994 880.057 107.326 879.775C107.662 879.49 107.885 878.996 107.994 878.293H109.125ZM110.209 877.771C110.209 877.15 110.33 876.592 110.572 876.096C110.818 875.6 111.158 875.217 111.592 874.947C112.029 874.678 112.527 874.543 113.086 874.543C113.949 874.543 114.646 874.842 115.178 875.439C115.713 876.037 115.98 876.832 115.98 877.824V877.9C115.98 878.518 115.861 879.072 115.623 879.564C115.389 880.053 115.051 880.434 114.609 880.707C114.172 880.98 113.668 881.117 113.098 881.117C112.238 881.117 111.541 880.818 111.006 880.221C110.475 879.623 110.209 878.832 110.209 877.848V877.771ZM111.299 877.9C111.299 878.604 111.461 879.168 111.785 879.594C112.113 880.02 112.551 880.232 113.098 880.232C113.648 880.232 114.086 880.018 114.41 879.588C114.734 879.154 114.896 878.549 114.896 877.771C114.896 877.076 114.73 876.514 114.398 876.084C114.07 875.65 113.633 875.434 113.086 875.434C112.551 875.434 112.119 875.646 111.791 876.072C111.463 876.498 111.299 877.107 111.299 877.9ZM121.254 880.373C120.832 880.869 120.213 881.117 119.396 881.117C118.721 881.117 118.205 880.922 117.85 880.531C117.498 880.137 117.32 879.555 117.316 878.785V874.66H118.4V878.756C118.4 879.717 118.791 880.197 119.572 880.197C120.4 880.197 120.951 879.889 121.225 879.271V874.66H122.309V881H121.277L121.254 880.373ZM124.986 874.66L125.021 875.457C125.506 874.848 126.139 874.543 126.92 874.543C128.26 874.543 128.936 875.299 128.947 876.811V881H127.863V876.805C127.859 876.348 127.754 876.01 127.547 875.791C127.344 875.572 127.025 875.463 126.592 875.463C126.24 875.463 125.932 875.557 125.666 875.744C125.4 875.932 125.193 876.178 125.045 876.482V881H123.961V874.66H124.986ZM132.053 873.125V874.66H133.236V875.498H132.053V879.43C132.053 879.684 132.105 879.875 132.211 880.004C132.316 880.129 132.496 880.191 132.75 880.191C132.875 880.191 133.047 880.168 133.266 880.121V881C132.98 881.078 132.703 881.117 132.434 881.117C131.949 881.117 131.584 880.971 131.338 880.678C131.092 880.385 130.969 879.969 130.969 879.43V875.498H129.814V874.66H130.969V873.125H132.053Z" fill="#212529"/>
<path d="M996.99 881V872.469H999.398C1000.14 872.469 1000.8 872.633 1001.37 872.961C1001.94 873.289 1002.38 873.756 1002.69 874.361C1003 874.967 1003.16 875.662 1003.16 876.447V876.992C1003.16 877.797 1003 878.502 1002.69 879.107C1002.38 879.713 1001.94 880.178 1001.36 880.502C1000.79 880.826 1000.12 880.992 999.352 881H996.99ZM998.115 873.395V880.08H999.299C1000.17 880.08 1000.84 879.811 1001.32 879.271C1001.8 878.732 1002.05 877.965 1002.05 876.969V876.471C1002.05 875.502 1001.82 874.75 1001.36 874.215C1000.91 873.676 1000.26 873.402 999.428 873.395H998.115ZM1007.33 881.117C1006.47 881.117 1005.77 880.836 1005.23 880.273C1004.69 879.707 1004.42 878.951 1004.42 878.006V877.807C1004.42 877.178 1004.54 876.617 1004.78 876.125C1005.02 875.629 1005.36 875.242 1005.79 874.965C1006.22 874.684 1006.69 874.543 1007.19 874.543C1008.02 874.543 1008.66 874.814 1009.11 875.357C1009.57 875.9 1009.8 876.678 1009.8 877.689V878.141H1005.5C1005.52 878.766 1005.7 879.271 1006.05 879.658C1006.4 880.041 1006.85 880.232 1007.38 880.232C1007.77 880.232 1008.09 880.154 1008.36 879.998C1008.62 879.842 1008.86 879.635 1009.05 879.377L1009.72 879.893C1009.19 880.709 1008.39 881.117 1007.33 881.117ZM1007.19 875.434C1006.75 875.434 1006.39 875.594 1006.09 875.914C1005.79 876.23 1005.61 876.676 1005.54 877.25H1008.71V877.168C1008.68 876.617 1008.54 876.191 1008.27 875.891C1008 875.586 1007.64 875.434 1007.19 875.434ZM1014.75 879.318C1014.75 879.025 1014.64 878.799 1014.42 878.639C1014.2 878.475 1013.81 878.334 1013.26 878.217C1012.71 878.1 1012.28 877.959 1011.96 877.795C1011.63 877.631 1011.4 877.436 1011.24 877.209C1011.09 876.982 1011.01 876.713 1011.01 876.4C1011.01 875.881 1011.23 875.441 1011.67 875.082C1012.11 874.723 1012.67 874.543 1013.36 874.543C1014.07 874.543 1014.66 874.729 1015.1 875.1C1015.55 875.471 1015.78 875.945 1015.78 876.523H1014.69C1014.69 876.227 1014.56 875.971 1014.3 875.756C1014.05 875.541 1013.74 875.434 1013.36 875.434C1012.96 875.434 1012.65 875.52 1012.43 875.691C1012.21 875.863 1012.1 876.088 1012.1 876.365C1012.1 876.627 1012.2 876.824 1012.41 876.957C1012.61 877.09 1012.99 877.217 1013.53 877.338C1014.07 877.459 1014.51 877.604 1014.84 877.771C1015.18 877.939 1015.43 878.143 1015.59 878.381C1015.75 878.615 1015.83 878.902 1015.83 879.242C1015.83 879.809 1015.61 880.264 1015.15 880.607C1014.7 880.947 1014.11 881.117 1013.39 881.117C1012.88 881.117 1012.43 881.027 1012.04 880.848C1011.65 880.668 1011.35 880.418 1011.12 880.098C1010.9 879.773 1010.79 879.424 1010.79 879.049H1011.88C1011.9 879.412 1012.04 879.701 1012.31 879.916C1012.59 880.127 1012.95 880.232 1013.39 880.232C1013.8 880.232 1014.13 880.15 1014.38 879.986C1014.62 879.818 1014.75 879.596 1014.75 879.318ZM1018.42 881H1017.34V874.66H1018.42V881ZM1017.25 872.979C1017.25 872.803 1017.3 872.654 1017.41 872.533C1017.52 872.412 1017.68 872.352 1017.89 872.352C1018.1 872.352 1018.26 872.412 1018.37 872.533C1018.48 872.654 1018.54 872.803 1018.54 872.979C1018.54 873.154 1018.48 873.301 1018.37 873.418C1018.26 873.535 1018.1 873.594 1017.89 873.594C1017.68 873.594 1017.52 873.535 1017.41 873.418C1017.3 873.301 1017.25 873.154 1017.25 872.979ZM1019.91 877.777C1019.91 876.789 1020.13 876.004 1020.59 875.422C1021.05 874.836 1021.65 874.543 1022.41 874.543C1023.18 874.543 1023.79 874.816 1024.22 875.363L1024.27 874.66H1025.26V880.848C1025.26 881.668 1025.02 882.314 1024.53 882.787C1024.04 883.26 1023.39 883.496 1022.57 883.496C1022.12 883.496 1021.67 883.398 1021.23 883.203C1020.79 883.008 1020.46 882.74 1020.23 882.4L1020.79 881.75C1021.26 882.324 1021.82 882.611 1022.5 882.611C1023.02 882.611 1023.43 882.463 1023.73 882.166C1024.02 881.869 1024.17 881.451 1024.17 880.912V880.367C1023.74 880.867 1023.15 881.117 1022.4 881.117C1021.65 881.117 1021.05 880.818 1020.59 880.221C1020.13 879.623 1019.91 878.809 1019.91 877.777ZM1021 877.9C1021 878.615 1021.14 879.178 1021.44 879.588C1021.73 879.994 1022.14 880.197 1022.67 880.197C1023.35 880.197 1023.85 879.887 1024.17 879.266V876.371C1023.84 875.766 1023.34 875.463 1022.68 875.463C1022.15 875.463 1021.74 875.668 1021.44 876.078C1021.14 876.488 1021 877.096 1021 877.9ZM1027.93 874.66L1027.96 875.457C1028.45 874.848 1029.08 874.543 1029.86 874.543C1031.2 874.543 1031.88 875.299 1031.89 876.811V881H1030.8V876.805C1030.8 876.348 1030.7 876.01 1030.49 875.791C1030.29 875.572 1029.97 875.463 1029.53 875.463C1029.18 875.463 1028.87 875.557 1028.61 875.744C1028.34 875.932 1028.13 876.178 1027.99 876.482V881H1026.9V874.66H1027.93ZM1036.15 881.117C1035.29 881.117 1034.6 880.836 1034.06 880.273C1033.52 879.707 1033.25 878.951 1033.25 878.006V877.807C1033.25 877.178 1033.37 876.617 1033.61 876.125C1033.85 875.629 1034.18 875.242 1034.61 874.965C1035.05 874.684 1035.52 874.543 1036.02 874.543C1036.84 874.543 1037.48 874.814 1037.94 875.357C1038.4 875.9 1038.63 876.678 1038.63 877.689V878.141H1034.33C1034.35 878.766 1034.53 879.271 1034.88 879.658C1035.23 880.041 1035.67 880.232 1036.21 880.232C1036.6 880.232 1036.92 880.154 1037.19 879.998C1037.45 879.842 1037.68 879.635 1037.88 879.377L1038.54 879.893C1038.01 880.709 1037.22 881.117 1036.15 881.117ZM1036.02 875.434C1035.58 875.434 1035.21 875.594 1034.92 875.914C1034.62 876.23 1034.44 876.676 1034.37 877.25H1037.54V877.168C1037.51 876.617 1037.36 876.191 1037.1 875.891C1036.83 875.586 1036.47 875.434 1036.02 875.434ZM1039.62 877.777C1039.62 876.805 1039.85 876.023 1040.31 875.434C1040.78 874.84 1041.38 874.543 1042.12 874.543C1042.87 874.543 1043.46 874.797 1043.89 875.305V872H1044.97V881H1043.98L1043.92 880.32C1043.49 880.852 1042.89 881.117 1042.11 881.117C1041.38 881.117 1040.78 880.816 1040.31 880.215C1039.85 879.613 1039.62 878.828 1039.62 877.859V877.777ZM1040.71 877.9C1040.71 878.619 1040.86 879.182 1041.15 879.588C1041.45 879.994 1041.86 880.197 1042.38 880.197C1043.07 880.197 1043.57 879.889 1043.89 879.271V876.359C1043.56 875.762 1043.07 875.463 1042.39 875.463C1041.86 875.463 1041.45 875.668 1041.15 876.078C1040.86 876.488 1040.71 877.096 1040.71 877.9ZM1055 877.9C1055 878.869 1054.78 879.648 1054.34 880.238C1053.89 880.824 1053.29 881.117 1052.54 881.117C1051.74 881.117 1051.12 880.834 1050.69 880.268L1050.63 881H1049.64V872H1050.72V875.357C1051.16 874.814 1051.76 874.543 1052.53 874.543C1053.3 874.543 1053.9 874.834 1054.34 875.416C1054.78 875.998 1055 876.795 1055 877.807V877.9ZM1053.92 877.777C1053.92 877.039 1053.78 876.469 1053.49 876.066C1053.21 875.664 1052.8 875.463 1052.26 875.463C1051.55 875.463 1051.03 875.795 1050.72 876.459V879.201C1051.05 879.865 1051.57 880.197 1052.27 880.197C1052.79 880.197 1053.2 879.996 1053.49 879.594C1053.78 879.191 1053.92 878.586 1053.92 877.777ZM1058.38 879.412L1059.86 874.66H1061.02L1058.47 881.979C1058.07 883.033 1057.45 883.561 1056.59 883.561L1056.38 883.543L1055.98 883.467V882.588L1056.27 882.611C1056.64 882.611 1056.92 882.537 1057.12 882.389C1057.33 882.24 1057.5 881.969 1057.63 881.574L1057.88 880.93L1055.61 874.66H1056.8L1058.38 879.412ZM1061.95 880.432C1061.95 880.244 1062.01 880.088 1062.12 879.963C1062.23 879.838 1062.4 879.775 1062.62 879.775C1062.84 879.775 1063.01 879.838 1063.12 879.963C1063.24 880.088 1063.3 880.244 1063.3 880.432C1063.3 880.611 1063.24 880.762 1063.12 880.883C1063.01 881.004 1062.84 881.064 1062.62 881.064C1062.4 881.064 1062.23 881.004 1062.12 880.883C1062.01 880.762 1061.95 880.611 1061.95 880.432ZM1061.96 875.258C1061.96 875.07 1062.01 874.914 1062.12 874.789C1062.24 874.664 1062.4 874.602 1062.63 874.602C1062.85 874.602 1063.02 874.664 1063.13 874.789C1063.25 874.914 1063.31 875.07 1063.31 875.258C1063.31 875.438 1063.25 875.588 1063.13 875.709C1063.02 875.83 1062.85 875.891 1062.63 875.891C1062.4 875.891 1062.24 875.83 1062.12 875.709C1062.01 875.588 1061.96 875.438 1061.96 875.258ZM1077.23 878.059C1077.19 879.004 1076.95 879.75 1076.53 880.297C1076.11 880.844 1075.54 881.117 1074.84 881.117C1074.11 881.117 1073.64 880.789 1073.43 880.133C1073.22 880.465 1072.98 880.713 1072.71 880.877C1072.44 881.037 1072.16 881.117 1071.87 881.117C1071.31 881.117 1070.89 880.891 1070.61 880.438C1070.32 879.984 1070.22 879.357 1070.29 878.557C1070.35 877.912 1070.5 877.338 1070.73 876.834C1070.97 876.326 1071.27 875.928 1071.64 875.639C1072.02 875.35 1072.41 875.205 1072.82 875.205C1073.14 875.205 1073.42 875.248 1073.67 875.334C1073.92 875.416 1074.2 875.58 1074.52 875.826L1074.21 879.072C1074.14 879.975 1074.39 880.426 1074.96 880.426C1075.4 880.426 1075.76 880.207 1076.03 879.77C1076.31 879.332 1076.46 878.762 1076.48 878.059C1076.55 876.539 1076.27 875.381 1075.63 874.584C1074.99 873.787 1074.02 873.389 1072.72 873.389C1071.93 873.389 1071.23 873.584 1070.62 873.975C1070.02 874.361 1069.54 874.922 1069.18 875.656C1068.83 876.391 1068.63 877.238 1068.59 878.199C1068.54 879.168 1068.66 880.01 1068.94 880.725C1069.22 881.436 1069.65 881.979 1070.23 882.354C1070.8 882.732 1071.5 882.922 1072.32 882.922C1072.67 882.922 1073.02 882.879 1073.37 882.793C1073.73 882.707 1074.02 882.596 1074.26 882.459L1074.47 883.133C1074.23 883.285 1073.91 883.41 1073.51 883.508C1073.11 883.605 1072.71 883.654 1072.29 883.654C1071.32 883.654 1070.48 883.434 1069.78 882.992C1069.07 882.555 1068.54 881.922 1068.19 881.094C1067.85 880.27 1067.7 879.305 1067.74 878.199C1067.79 877.125 1068.03 876.16 1068.46 875.305C1068.9 874.445 1069.48 873.783 1070.23 873.318C1070.97 872.85 1071.81 872.615 1072.74 872.615C1073.71 872.615 1074.55 872.834 1075.24 873.271C1075.94 873.709 1076.46 874.34 1076.79 875.164C1077.13 875.988 1077.28 876.953 1077.23 878.059ZM1071.22 878.557C1071.17 879.111 1071.22 879.537 1071.38 879.834C1071.54 880.131 1071.79 880.279 1072.13 880.279C1072.37 880.279 1072.59 880.18 1072.8 879.98C1073.02 879.781 1073.2 879.496 1073.34 879.125L1073.35 879.072L1073.62 876.125C1073.4 876.012 1073.17 875.955 1072.92 875.955C1072.46 875.955 1072.08 876.188 1071.78 876.652C1071.48 877.117 1071.3 877.752 1071.22 878.557ZM1079.67 874.66L1079.7 875.363C1080.17 874.816 1080.79 874.543 1081.58 874.543C1082.47 874.543 1083.07 874.883 1083.39 875.562C1083.6 875.258 1083.88 875.012 1084.21 874.824C1084.55 874.637 1084.95 874.543 1085.41 874.543C1086.8 874.543 1087.51 875.279 1087.54 876.752V881H1086.45V876.816C1086.45 876.363 1086.35 876.025 1086.14 875.803C1085.93 875.576 1085.59 875.463 1085.1 875.463C1084.7 875.463 1084.36 875.584 1084.1 875.826C1083.83 876.064 1083.68 876.387 1083.63 876.793V881H1082.54V876.846C1082.54 875.924 1082.09 875.463 1081.19 875.463C1080.48 875.463 1079.99 875.766 1079.73 876.371V881H1078.65V874.66H1079.67ZM1090.2 874.66L1090.22 875.363C1090.69 874.816 1091.32 874.543 1092.11 874.543C1092.99 874.543 1093.6 874.883 1093.92 875.562C1094.13 875.258 1094.4 875.012 1094.74 874.824C1095.08 874.637 1095.48 874.543 1095.94 874.543C1097.33 874.543 1098.04 875.279 1098.06 876.752V881H1096.97V876.816C1096.97 876.363 1096.87 876.025 1096.66 875.803C1096.46 875.576 1096.11 875.463 1095.62 875.463C1095.22 875.463 1094.88 875.584 1094.62 875.826C1094.35 876.064 1094.2 876.387 1094.16 876.793V881H1093.07V876.846C1093.07 875.924 1092.62 875.463 1091.71 875.463C1091 875.463 1090.52 875.766 1090.25 876.371V881H1089.17V874.66H1090.2ZM1103.61 881C1103.55 880.875 1103.5 880.652 1103.46 880.332C1102.96 880.855 1102.36 881.117 1101.66 881.117C1101.03 881.117 1100.52 880.941 1100.12 880.59C1099.72 880.234 1099.52 879.785 1099.52 879.242C1099.52 878.582 1099.77 878.07 1100.27 877.707C1100.77 877.34 1101.48 877.156 1102.39 877.156H1103.44V876.658C1103.44 876.279 1103.33 875.979 1103.1 875.756C1102.88 875.529 1102.54 875.416 1102.1 875.416C1101.71 875.416 1101.39 875.514 1101.13 875.709C1100.87 875.904 1100.74 876.141 1100.74 876.418H1099.65C1099.65 876.102 1099.76 875.797 1099.98 875.504C1100.21 875.207 1100.51 874.973 1100.89 874.801C1101.28 874.629 1101.71 874.543 1102.17 874.543C1102.9 874.543 1103.47 874.727 1103.88 875.094C1104.3 875.457 1104.51 875.959 1104.53 876.6V879.518C1104.53 880.1 1104.6 880.562 1104.75 880.906V881H1103.61ZM1101.81 880.174C1102.15 880.174 1102.48 880.086 1102.78 879.91C1103.09 879.734 1103.31 879.506 1103.44 879.225V877.924H1102.59C1101.27 877.924 1100.6 878.312 1100.6 879.09C1100.6 879.43 1100.71 879.695 1100.94 879.887C1101.17 880.078 1101.46 880.174 1101.81 880.174ZM1109.29 875.633C1109.13 875.605 1108.95 875.592 1108.76 875.592C1108.05 875.592 1107.56 875.895 1107.31 876.5V881H1106.23V874.66H1107.28L1107.3 875.393C1107.65 874.826 1108.16 874.543 1108.81 874.543C1109.02 874.543 1109.18 874.57 1109.29 874.625V875.633ZM1112.72 880.232C1113.11 880.232 1113.44 880.115 1113.73 879.881C1114.02 879.646 1114.18 879.354 1114.21 879.002H1115.24C1115.22 879.365 1115.09 879.711 1114.86 880.039C1114.63 880.367 1114.32 880.629 1113.94 880.824C1113.55 881.02 1113.15 881.117 1112.72 881.117C1111.86 881.117 1111.17 880.83 1110.66 880.256C1110.15 879.678 1109.89 878.889 1109.89 877.889V877.707C1109.89 877.09 1110.01 876.541 1110.23 876.061C1110.46 875.58 1110.79 875.207 1111.21 874.941C1111.63 874.676 1112.13 874.543 1112.71 874.543C1113.42 874.543 1114.01 874.756 1114.48 875.182C1114.96 875.607 1115.21 876.16 1115.24 876.84H1114.21C1114.18 876.43 1114.03 876.094 1113.74 875.832C1113.47 875.566 1113.12 875.434 1112.71 875.434C1112.16 875.434 1111.73 875.633 1111.43 876.031C1111.13 876.426 1110.98 876.998 1110.98 877.748V877.953C1110.98 878.684 1111.13 879.246 1111.43 879.641C1111.73 880.035 1112.16 880.232 1112.72 880.232ZM1116.17 877.771C1116.17 877.15 1116.29 876.592 1116.53 876.096C1116.78 875.6 1117.12 875.217 1117.55 874.947C1117.99 874.678 1118.49 874.543 1119.05 874.543C1119.91 874.543 1120.61 874.842 1121.14 875.439C1121.67 876.037 1121.94 876.832 1121.94 877.824V877.9C1121.94 878.518 1121.82 879.072 1121.58 879.564C1121.35 880.053 1121.01 880.434 1120.57 880.707C1120.13 880.98 1119.63 881.117 1119.06 881.117C1118.2 881.117 1117.5 880.818 1116.97 880.221C1116.44 879.623 1116.17 878.832 1116.17 877.848V877.771ZM1117.26 877.9C1117.26 878.604 1117.42 879.168 1117.75 879.594C1118.07 880.02 1118.51 880.232 1119.06 880.232C1119.61 880.232 1120.05 880.018 1120.37 879.588C1120.7 879.154 1120.86 878.549 1120.86 877.771C1120.86 877.076 1120.69 876.514 1120.36 876.084C1120.03 875.65 1119.59 875.434 1119.05 875.434C1118.51 875.434 1118.08 875.646 1117.75 876.072C1117.42 876.498 1117.26 877.107 1117.26 877.9ZM1126.99 879.318C1126.99 879.025 1126.88 878.799 1126.66 878.639C1126.44 878.475 1126.05 878.334 1125.5 878.217C1124.96 878.1 1124.52 877.959 1124.2 877.795C1123.88 877.631 1123.64 877.436 1123.48 877.209C1123.33 876.982 1123.25 876.713 1123.25 876.4C1123.25 875.881 1123.47 875.441 1123.91 875.082C1124.35 874.723 1124.91 874.543 1125.6 874.543C1126.32 874.543 1126.9 874.729 1127.34 875.1C1127.79 875.471 1128.02 875.945 1128.02 876.523H1126.93C1126.93 876.227 1126.8 875.971 1126.55 875.756C1126.3 875.541 1125.98 875.434 1125.6 875.434C1125.2 875.434 1124.89 875.52 1124.67 875.691C1124.45 875.863 1124.34 876.088 1124.34 876.365C1124.34 876.627 1124.44 876.824 1124.65 876.957C1124.86 877.09 1125.23 877.217 1125.77 877.338C1126.31 877.459 1126.75 877.604 1127.09 877.771C1127.42 877.939 1127.67 878.143 1127.83 878.381C1127.99 878.615 1128.08 878.902 1128.08 879.242C1128.08 879.809 1127.85 880.264 1127.4 880.607C1126.94 880.947 1126.36 881.117 1125.63 881.117C1125.12 881.117 1124.68 881.027 1124.29 880.848C1123.89 880.668 1123.59 880.418 1123.37 880.098C1123.15 879.773 1123.04 879.424 1123.04 879.049H1124.12C1124.14 879.412 1124.29 879.701 1124.55 879.916C1124.83 880.127 1125.19 880.232 1125.63 880.232C1126.04 880.232 1126.37 880.15 1126.62 879.986C1126.87 879.818 1126.99 879.596 1126.99 879.318ZM1130.51 874.66L1130.54 875.363C1131 874.816 1131.63 874.543 1132.42 874.543C1133.3 874.543 1133.91 874.883 1134.23 875.562C1134.44 875.258 1134.71 875.012 1135.05 874.824C1135.39 874.637 1135.79 874.543 1136.25 874.543C1137.64 874.543 1138.35 875.279 1138.37 876.752V881H1137.29V876.816C1137.29 876.363 1137.18 876.025 1136.98 875.803C1136.77 875.576 1136.42 875.463 1135.93 875.463C1135.53 875.463 1135.2 875.584 1134.93 875.826C1134.67 876.064 1134.51 876.387 1134.47 876.793V881H1133.38V876.846C1133.38 875.924 1132.93 875.463 1132.03 875.463C1131.31 875.463 1130.83 875.766 1130.57 876.371V881H1129.48V874.66H1130.51ZM1143.93 881C1143.86 880.875 1143.81 880.652 1143.77 880.332C1143.27 880.855 1142.67 881.117 1141.97 881.117C1141.34 881.117 1140.83 880.941 1140.43 880.59C1140.03 880.234 1139.83 879.785 1139.83 879.242C1139.83 878.582 1140.08 878.07 1140.58 877.707C1141.08 877.34 1141.79 877.156 1142.7 877.156H1143.76V876.658C1143.76 876.279 1143.64 875.979 1143.42 875.756C1143.19 875.529 1142.86 875.416 1142.41 875.416C1142.03 875.416 1141.7 875.514 1141.44 875.709C1141.18 875.904 1141.05 876.141 1141.05 876.418H1139.96C1139.96 876.102 1140.07 875.797 1140.29 875.504C1140.52 875.207 1140.82 874.973 1141.21 874.801C1141.59 874.629 1142.02 874.543 1142.48 874.543C1143.21 874.543 1143.78 874.727 1144.2 875.094C1144.61 875.457 1144.82 875.959 1144.84 876.6V879.518C1144.84 880.1 1144.91 880.562 1145.06 880.906V881H1143.93ZM1142.13 880.174C1142.47 880.174 1142.79 880.086 1143.09 879.91C1143.4 879.734 1143.62 879.506 1143.76 879.225V877.924H1142.91C1141.58 877.924 1140.91 878.312 1140.91 879.09C1140.91 879.43 1141.03 879.695 1141.25 879.887C1141.48 880.078 1141.77 880.174 1142.13 880.174ZM1148.01 873.125V874.66H1149.19V875.498H1148.01V879.43C1148.01 879.684 1148.06 879.875 1148.17 880.004C1148.27 880.129 1148.45 880.191 1148.71 880.191C1148.83 880.191 1149 880.168 1149.22 880.121V881C1148.94 881.078 1148.66 881.117 1148.39 881.117C1147.91 881.117 1147.54 880.971 1147.29 880.678C1147.05 880.385 1146.93 879.969 1146.93 879.43V875.498H1145.77V874.66H1146.93V873.125H1148.01ZM1151.55 875.428C1152.03 874.838 1152.65 874.543 1153.42 874.543C1154.76 874.543 1155.44 875.299 1155.45 876.811V881H1154.37V876.805C1154.36 876.348 1154.26 876.01 1154.05 875.791C1153.85 875.572 1153.53 875.463 1153.1 875.463C1152.74 875.463 1152.44 875.557 1152.17 875.744C1151.9 875.932 1151.7 876.178 1151.55 876.482V881H1150.46V872H1151.55V875.428Z" fill="#212529"/>
</g>
<rect x="0.5" y="844.5" width="1175" height="64" stroke="#F1F1F1"/>
<g clip-path="url(#clip1)">
<g clip-path="url(#clip2)" filter="url(#filter1_d)">
<g filter="url(#filter2_d)">
<rect x="41.8262" y="613.266" width="1089" height="141" fill="white"/>
<rect x="42.3262" y="613.766" width="1088" height="140" stroke="#DDE4EB"/>
</g>
<path d="M279.679 687H277.949L273.513 679.938V687H271.783V677.047H273.513L277.963 684.136V677.047H279.679V687ZM285.981 687C285.909 686.859 285.845 686.629 285.79 686.31C285.261 686.861 284.614 687.137 283.849 687.137C283.106 687.137 282.5 686.925 282.03 686.501C281.561 686.077 281.326 685.553 281.326 684.929C281.326 684.14 281.618 683.536 282.201 683.117C282.789 682.693 283.628 682.481 284.717 682.481H285.735V681.996C285.735 681.613 285.628 681.308 285.414 681.08C285.2 680.848 284.874 680.731 284.437 680.731C284.058 680.731 283.748 680.827 283.507 681.019C283.265 681.205 283.145 681.445 283.145 681.736H281.483C281.483 681.331 281.618 680.952 281.887 680.602C282.156 680.246 282.52 679.968 282.98 679.768C283.445 679.567 283.963 679.467 284.532 679.467C285.398 679.467 286.089 679.686 286.604 680.123C287.118 680.556 287.383 681.167 287.396 681.955V685.291C287.396 685.956 287.49 686.487 287.677 686.884V687H285.981ZM284.156 685.804C284.484 685.804 284.792 685.724 285.079 685.564C285.371 685.405 285.59 685.191 285.735 684.922V683.527H284.84C284.225 683.527 283.762 683.634 283.452 683.849C283.142 684.063 282.987 684.366 282.987 684.758C282.987 685.077 283.092 685.332 283.302 685.523C283.516 685.71 283.801 685.804 284.156 685.804ZM287.096 676.65C287.096 677.152 286.95 677.569 286.658 677.901C286.371 678.234 286.009 678.4 285.571 678.4C285.394 678.4 285.239 678.382 285.106 678.346C284.979 678.305 284.794 678.216 284.553 678.079C284.316 677.942 284.147 677.86 284.047 677.833C283.951 677.806 283.844 677.792 283.726 677.792C283.552 677.792 283.404 677.858 283.281 677.99C283.163 678.118 283.104 678.286 283.104 678.496L282.085 678.441C282.085 677.94 282.229 677.519 282.516 677.177C282.807 676.835 283.17 676.664 283.603 676.664C283.862 676.664 284.174 676.767 284.539 676.972C284.908 677.177 285.211 677.279 285.448 677.279C285.621 677.279 285.77 677.215 285.893 677.088C286.016 676.956 286.077 676.783 286.077 676.568L287.096 676.65ZM288.825 683.233C288.825 682.509 288.969 681.857 289.256 681.278C289.543 680.695 289.946 680.248 290.466 679.938C290.985 679.624 291.582 679.467 292.257 679.467C293.255 679.467 294.064 679.788 294.684 680.431C295.308 681.073 295.645 681.925 295.695 682.987L295.702 683.377C295.702 684.106 295.561 684.758 295.278 685.332C295 685.906 294.599 686.351 294.075 686.665C293.556 686.979 292.954 687.137 292.271 687.137C291.227 687.137 290.391 686.79 289.762 686.098C289.137 685.4 288.825 684.473 288.825 683.315V683.233ZM290.486 683.377C290.486 684.138 290.644 684.735 290.958 685.168C291.272 685.596 291.71 685.811 292.271 685.811C292.831 685.811 293.266 685.592 293.576 685.154C293.891 684.717 294.048 684.076 294.048 683.233C294.048 682.486 293.886 681.894 293.562 681.456C293.243 681.019 292.808 680.8 292.257 680.8C291.715 680.8 291.284 681.016 290.965 681.449C290.646 681.878 290.486 682.52 290.486 683.377ZM302.36 687H300.699V676.5H302.36V687ZM305.942 687H304.281V679.604H305.942V687ZM304.179 677.683C304.179 677.427 304.258 677.215 304.418 677.047C304.582 676.878 304.814 676.794 305.115 676.794C305.416 676.794 305.648 676.878 305.812 677.047C305.977 677.215 306.059 677.427 306.059 677.683C306.059 677.933 305.977 678.143 305.812 678.312C305.648 678.476 305.416 678.558 305.115 678.558C304.814 678.558 304.582 678.476 304.418 678.312C304.258 678.143 304.179 677.933 304.179 677.683ZM307.446 683.247C307.446 682.108 307.711 681.194 308.239 680.506C308.768 679.813 309.477 679.467 310.365 679.467C311.149 679.467 311.783 679.74 312.266 680.287V676.5H313.927V687H312.423L312.341 686.234C311.844 686.836 311.181 687.137 310.352 687.137C309.486 687.137 308.784 686.788 308.246 686.091C307.713 685.394 307.446 684.446 307.446 683.247ZM309.107 683.391C309.107 684.143 309.251 684.73 309.538 685.154C309.83 685.574 310.242 685.783 310.775 685.783C311.454 685.783 311.951 685.48 312.266 684.874V681.716C311.96 681.123 311.468 680.827 310.789 680.827C310.251 680.827 309.837 681.041 309.545 681.47C309.253 681.894 309.107 682.534 309.107 683.391ZM315.349 683.233C315.349 682.509 315.492 681.857 315.779 681.278C316.066 680.695 316.47 680.248 316.989 679.938C317.509 679.624 318.106 679.467 318.78 679.467C319.778 679.467 320.587 679.788 321.207 680.431C321.831 681.073 322.169 681.925 322.219 682.987L322.226 683.377C322.226 684.106 322.084 684.758 321.802 685.332C321.524 685.906 321.123 686.351 320.599 686.665C320.079 686.979 319.478 687.137 318.794 687.137C317.75 687.137 316.914 686.79 316.285 686.098C315.661 685.4 315.349 684.473 315.349 683.315V683.233ZM317.01 683.377C317.01 684.138 317.167 684.735 317.481 685.168C317.796 685.596 318.233 685.811 318.794 685.811C319.354 685.811 319.79 685.592 320.1 685.154C320.414 684.717 320.571 684.076 320.571 683.233C320.571 682.486 320.41 681.894 320.086 681.456C319.767 681.019 319.332 680.8 318.78 680.8C318.238 680.8 317.807 681.016 317.488 681.449C317.169 681.878 317.01 682.52 317.01 683.377ZM327.776 684.99C327.776 684.694 327.653 684.468 327.407 684.313C327.166 684.159 326.762 684.022 326.197 683.903C325.632 683.785 325.16 683.634 324.782 683.452C323.953 683.051 323.538 682.47 323.538 681.709C323.538 681.071 323.807 680.538 324.345 680.109C324.882 679.681 325.566 679.467 326.396 679.467C327.28 679.467 327.993 679.686 328.535 680.123C329.082 680.561 329.355 681.128 329.355 681.825H327.694C327.694 681.506 327.576 681.242 327.339 681.032C327.102 680.818 326.787 680.711 326.396 680.711C326.031 680.711 325.732 680.795 325.5 680.964C325.272 681.132 325.158 681.358 325.158 681.641C325.158 681.896 325.265 682.094 325.479 682.235C325.694 682.377 326.127 682.52 326.778 682.666C327.43 682.807 327.94 682.978 328.31 683.179C328.683 683.375 328.959 683.612 329.137 683.89C329.319 684.168 329.41 684.505 329.41 684.901C329.41 685.567 329.134 686.107 328.583 686.521C328.032 686.932 327.309 687.137 326.416 687.137C325.81 687.137 325.27 687.027 324.796 686.809C324.322 686.59 323.953 686.289 323.688 685.906C323.424 685.523 323.292 685.111 323.292 684.669H324.905C324.928 685.061 325.076 685.364 325.35 685.578C325.623 685.788 325.985 685.893 326.437 685.893C326.874 685.893 327.207 685.811 327.435 685.646C327.662 685.478 327.776 685.259 327.776 684.99Z" fill="#2B80FF"/>
<path d="M277.812 670H275.271V660.209L272.239 661.149V659.084L277.539 657.186H277.812V670ZM290.591 664.709C290.591 666.479 290.225 667.832 289.492 668.77C288.76 669.707 287.688 670.176 286.275 670.176C284.881 670.176 283.814 669.716 283.076 668.796C282.338 667.876 281.96 666.558 281.942 664.841V662.485C281.942 660.698 282.312 659.342 283.05 658.416C283.794 657.49 284.863 657.027 286.258 657.027C287.652 657.027 288.719 657.487 289.457 658.407C290.195 659.321 290.573 660.637 290.591 662.354V664.709ZM288.051 662.125C288.051 661.064 287.904 660.294 287.611 659.813C287.324 659.327 286.873 659.084 286.258 659.084C285.66 659.084 285.218 659.315 284.931 659.778C284.649 660.235 284.5 660.953 284.482 661.932V665.043C284.482 666.086 284.623 666.862 284.904 667.372C285.191 667.876 285.648 668.128 286.275 668.128C286.896 668.128 287.345 667.885 287.62 667.398C287.896 666.912 288.039 666.168 288.051 665.166V662.125ZM300.927 664.709C300.927 666.479 300.561 667.832 299.828 668.77C299.096 669.707 298.023 670.176 296.611 670.176C295.217 670.176 294.15 669.716 293.412 668.796C292.674 667.876 292.296 666.558 292.278 664.841V662.485C292.278 660.698 292.647 659.342 293.386 658.416C294.13 657.49 295.199 657.027 296.594 657.027C297.988 657.027 299.055 657.487 299.793 658.407C300.531 659.321 300.909 660.637 300.927 662.354V664.709ZM298.387 662.125C298.387 661.064 298.24 660.294 297.947 659.813C297.66 659.327 297.209 659.084 296.594 659.084C295.996 659.084 295.554 659.315 295.267 659.778C294.985 660.235 294.836 660.953 294.818 661.932V665.043C294.818 666.086 294.959 666.862 295.24 667.372C295.527 667.876 295.984 668.128 296.611 668.128C297.232 668.128 297.681 667.885 297.956 667.398C298.231 666.912 298.375 666.168 298.387 665.166V662.125Z" fill="#001737"/>
<rect x="913.326" y="613.5" width="217" height="139" rx="1.5" stroke="#E1E1E1"/>
<rect x="695.326" y="613.5" width="217" height="139" rx="1.5" stroke="#E1E1E1"/>
<rect x="477.326" y="613.5" width="217" height="139" rx="1.5" stroke="#E1E1E1"/>
<rect x="259.326" y="613.5" width="217" height="139" rx="1.5" stroke="#E1E1E1"/>
<path d="M501.467 685.619H505.985V687H499.737V677.047H501.467V685.619ZM508.918 687H507.257V679.604H508.918V687ZM507.154 677.683C507.154 677.427 507.234 677.215 507.394 677.047C507.558 676.878 507.79 676.794 508.091 676.794C508.392 676.794 508.624 676.878 508.788 677.047C508.952 677.215 509.034 677.427 509.034 677.683C509.034 677.933 508.952 678.143 508.788 678.312C508.624 678.476 508.392 678.558 508.091 678.558C507.79 678.558 507.558 678.476 507.394 678.312C507.234 678.143 507.154 677.933 507.154 677.683ZM510.422 683.247C510.422 682.108 510.686 681.194 511.215 680.506C511.743 679.813 512.452 679.467 513.341 679.467C514.125 679.467 514.758 679.74 515.241 680.287V676.5H516.902V687H515.398L515.316 686.234C514.82 686.836 514.157 687.137 513.327 687.137C512.461 687.137 511.759 686.788 511.222 686.091C510.688 685.394 510.422 684.446 510.422 683.247ZM512.083 683.391C512.083 684.143 512.227 684.73 512.514 685.154C512.805 685.574 513.218 685.783 513.751 685.783C514.43 685.783 514.927 685.48 515.241 684.874V681.716C514.936 681.123 514.444 680.827 513.765 680.827C513.227 680.827 512.812 681.041 512.521 681.47C512.229 681.894 512.083 682.534 512.083 683.391ZM518.324 683.233C518.324 682.509 518.468 681.857 518.755 681.278C519.042 680.695 519.445 680.248 519.965 679.938C520.484 679.624 521.081 679.467 521.756 679.467C522.754 679.467 523.563 679.788 524.183 680.431C524.807 681.073 525.144 681.925 525.194 682.987L525.201 683.377C525.201 684.106 525.06 684.758 524.777 685.332C524.499 685.906 524.098 686.351 523.574 686.665C523.055 686.979 522.453 687.137 521.77 687.137C520.726 687.137 519.89 686.79 519.261 686.098C518.636 685.4 518.324 684.473 518.324 683.315V683.233ZM519.985 683.377C519.985 684.138 520.143 684.735 520.457 685.168C520.771 685.596 521.209 685.811 521.77 685.811C522.33 685.811 522.765 685.592 523.075 685.154C523.39 684.717 523.547 684.076 523.547 683.233C523.547 682.486 523.385 681.894 523.062 681.456C522.743 681.019 522.307 680.8 521.756 680.8C521.214 680.8 520.783 681.016 520.464 681.449C520.145 681.878 519.985 682.52 519.985 683.377ZM530.752 684.99C530.752 684.694 530.629 684.468 530.383 684.313C530.141 684.159 529.738 684.022 529.173 683.903C528.608 683.785 528.136 683.634 527.758 683.452C526.928 683.051 526.514 682.47 526.514 681.709C526.514 681.071 526.783 680.538 527.32 680.109C527.858 679.681 528.542 679.467 529.371 679.467C530.255 679.467 530.968 679.686 531.511 680.123C532.058 680.561 532.331 681.128 532.331 681.825H530.67C530.67 681.506 530.551 681.242 530.314 681.032C530.077 680.818 529.763 680.711 529.371 680.711C529.007 680.711 528.708 680.795 528.476 680.964C528.248 681.132 528.134 681.358 528.134 681.641C528.134 681.896 528.241 682.094 528.455 682.235C528.669 682.377 529.102 682.52 529.754 682.666C530.406 682.807 530.916 682.978 531.285 683.179C531.659 683.375 531.935 683.612 532.112 683.89C532.295 684.168 532.386 684.505 532.386 684.901C532.386 685.567 532.11 686.107 531.559 686.521C531.007 686.932 530.285 687.137 529.392 687.137C528.785 687.137 528.245 687.027 527.771 686.809C527.298 686.59 526.928 686.289 526.664 685.906C526.4 685.523 526.268 685.111 526.268 684.669H527.881C527.904 685.061 528.052 685.364 528.325 685.578C528.599 685.788 528.961 685.893 529.412 685.893C529.85 685.893 530.182 685.811 530.41 685.646C530.638 685.478 530.752 685.259 530.752 684.99Z" fill="#2B80FF"/>
<path d="M505.537 664.885C504.875 665.535 504.102 665.86 503.217 665.86C502.086 665.86 501.181 665.474 500.501 664.7C499.821 663.921 499.481 662.872 499.481 661.554C499.481 660.716 499.663 659.948 500.026 659.251C500.396 658.548 500.908 658.003 501.564 657.616C502.221 657.224 502.959 657.027 503.779 657.027C504.623 657.027 505.373 657.238 506.029 657.66C506.686 658.082 507.195 658.688 507.559 659.479C507.922 660.271 508.106 661.176 508.112 662.195V663.136C508.112 665.269 507.582 666.944 506.521 668.163C505.461 669.382 503.958 670.032 502.013 670.114L501.389 670.123V668.005L501.951 667.996C504.16 667.896 505.355 666.859 505.537 664.885ZM503.841 663.918C504.251 663.918 504.603 663.812 504.896 663.602C505.194 663.391 505.42 663.136 505.572 662.837V661.791C505.572 660.93 505.408 660.262 505.08 659.787C504.752 659.312 504.312 659.075 503.762 659.075C503.252 659.075 502.833 659.31 502.505 659.778C502.177 660.241 502.013 660.824 502.013 661.527C502.013 662.225 502.171 662.799 502.487 663.25C502.81 663.695 503.261 663.918 503.841 663.918ZM518.545 664.709C518.545 666.479 518.179 667.832 517.446 668.77C516.714 669.707 515.642 670.176 514.229 670.176C512.835 670.176 511.769 669.716 511.03 668.796C510.292 667.876 509.914 666.558 509.896 664.841V662.485C509.896 660.698 510.266 659.342 511.004 658.416C511.748 657.49 512.817 657.027 514.212 657.027C515.606 657.027 516.673 657.487 517.411 658.407C518.149 659.321 518.527 660.637 518.545 662.354V664.709ZM516.005 662.125C516.005 661.064 515.858 660.294 515.565 659.813C515.278 659.327 514.827 659.084 514.212 659.084C513.614 659.084 513.172 659.315 512.885 659.778C512.604 660.235 512.454 660.953 512.437 661.932V665.043C512.437 666.086 512.577 666.862 512.858 667.372C513.146 667.876 513.603 668.128 514.229 668.128C514.851 668.128 515.299 667.885 515.574 667.398C515.85 666.912 515.993 666.168 516.005 665.166V662.125ZM528.881 664.709C528.881 666.479 528.515 667.832 527.782 668.77C527.05 669.707 525.978 670.176 524.565 670.176C523.171 670.176 522.104 669.716 521.366 668.796C520.628 667.876 520.25 666.558 520.232 664.841V662.485C520.232 660.698 520.602 659.342 521.34 658.416C522.084 657.49 523.153 657.027 524.548 657.027C525.942 657.027 527.009 657.487 527.747 658.407C528.485 659.321 528.863 660.637 528.881 662.354V664.709ZM526.341 662.125C526.341 661.064 526.194 660.294 525.901 659.813C525.614 659.327 525.163 659.084 524.548 659.084C523.95 659.084 523.508 659.315 523.221 659.778C522.939 660.235 522.79 660.953 522.772 661.932V665.043C522.772 666.086 522.913 666.862 523.194 667.372C523.481 667.876 523.938 668.128 524.565 668.128C525.187 668.128 525.635 667.885 525.91 667.398C526.186 666.912 526.329 666.168 526.341 665.166V662.125Z" fill="#001737"/>
<path d="M718.837 687H717.114V677.047H718.837V687ZM722.344 679.604L722.392 680.458C722.938 679.797 723.656 679.467 724.545 679.467C726.085 679.467 726.869 680.349 726.896 682.112V687H725.235V682.208C725.235 681.739 725.133 681.392 724.928 681.169C724.727 680.941 724.397 680.827 723.937 680.827C723.267 680.827 722.768 681.13 722.439 681.736V687H720.778V679.604H722.344ZM729.18 687V680.834H728.052V679.604H729.18V678.927C729.18 678.106 729.408 677.473 729.863 677.026C730.319 676.58 730.957 676.356 731.777 676.356C732.069 676.356 732.379 676.397 732.707 676.479L732.666 677.778C732.484 677.742 732.272 677.724 732.03 677.724C731.237 677.724 730.841 678.132 730.841 678.947V679.604H732.345V680.834H730.841V687H729.18ZM733.247 683.233C733.247 682.509 733.391 681.857 733.678 681.278C733.965 680.695 734.368 680.248 734.888 679.938C735.407 679.624 736.004 679.467 736.679 679.467C737.677 679.467 738.486 679.788 739.105 680.431C739.73 681.073 740.067 681.925 740.117 682.987L740.124 683.377C740.124 684.106 739.983 684.758 739.7 685.332C739.422 685.906 739.021 686.351 738.497 686.665C737.978 686.979 737.376 687.137 736.692 687.137C735.649 687.137 734.812 686.79 734.184 686.098C733.559 685.4 733.247 684.473 733.247 683.315V683.233ZM734.908 683.377C734.908 684.138 735.065 684.735 735.38 685.168C735.694 685.596 736.132 685.811 736.692 685.811C737.253 685.811 737.688 685.592 737.998 685.154C738.312 684.717 738.47 684.076 738.47 683.233C738.47 682.486 738.308 681.894 737.984 681.456C737.665 681.019 737.23 680.8 736.679 680.8C736.136 680.8 735.706 681.016 735.387 681.449C735.068 681.878 734.908 682.52 734.908 683.377ZM745.401 681.121C745.183 681.085 744.957 681.066 744.725 681.066C743.964 681.066 743.451 681.358 743.187 681.941V687H741.525V679.604H743.111L743.152 680.431C743.553 679.788 744.109 679.467 744.82 679.467C745.057 679.467 745.253 679.499 745.408 679.562L745.401 681.121ZM748.013 679.604L748.061 680.376C748.58 679.77 749.291 679.467 750.193 679.467C751.182 679.467 751.859 679.845 752.224 680.602C752.761 679.845 753.518 679.467 754.493 679.467C755.309 679.467 755.915 679.692 756.312 680.144C756.713 680.595 756.918 681.26 756.927 682.14V687H755.266V682.188C755.266 681.718 755.163 681.374 754.958 681.155C754.753 680.937 754.413 680.827 753.939 680.827C753.561 680.827 753.251 680.93 753.01 681.135C752.773 681.335 752.606 681.6 752.511 681.928L752.518 687H750.856V682.133C750.834 681.262 750.389 680.827 749.523 680.827C748.858 680.827 748.386 681.098 748.108 681.641V687H746.447V679.604H748.013ZM763.052 687C762.979 686.859 762.915 686.629 762.86 686.31C762.332 686.861 761.685 687.137 760.919 687.137C760.176 687.137 759.57 686.925 759.101 686.501C758.631 686.077 758.396 685.553 758.396 684.929C758.396 684.14 758.688 683.536 759.271 683.117C759.859 682.693 760.698 682.481 761.787 682.481H762.806V681.996C762.806 681.613 762.699 681.308 762.484 681.08C762.27 680.848 761.944 680.731 761.507 680.731C761.129 680.731 760.819 680.827 760.577 681.019C760.336 681.205 760.215 681.445 760.215 681.736H758.554C758.554 681.331 758.688 680.952 758.957 680.602C759.226 680.246 759.59 679.968 760.051 679.768C760.516 679.567 761.033 679.467 761.603 679.467C762.468 679.467 763.159 679.686 763.674 680.123C764.189 680.556 764.453 681.167 764.467 681.955V685.291C764.467 685.956 764.56 686.487 764.747 686.884V687H763.052ZM761.227 685.804C761.555 685.804 761.862 685.724 762.149 685.564C762.441 685.405 762.66 685.191 762.806 684.922V683.527H761.91C761.295 683.527 760.832 683.634 760.522 683.849C760.213 684.063 760.058 684.366 760.058 684.758C760.058 685.077 760.162 685.332 760.372 685.523C760.586 685.71 760.871 685.804 761.227 685.804ZM769.245 685.811C769.66 685.811 770.004 685.69 770.277 685.448C770.551 685.207 770.697 684.908 770.715 684.553H772.28C772.262 685.013 772.118 685.444 771.85 685.845C771.581 686.241 771.216 686.556 770.756 686.788C770.296 687.021 769.799 687.137 769.266 687.137C768.231 687.137 767.411 686.802 766.805 686.132C766.199 685.462 765.896 684.537 765.896 683.356V683.186C765.896 682.06 766.196 681.16 766.798 680.485C767.399 679.806 768.22 679.467 769.259 679.467C770.138 679.467 770.854 679.724 771.405 680.239C771.961 680.75 772.253 681.422 772.28 682.256H770.715C770.697 681.832 770.551 681.483 770.277 681.21C770.008 680.937 769.664 680.8 769.245 680.8C768.707 680.8 768.293 680.996 768.001 681.388C767.709 681.775 767.561 682.365 767.557 683.158V683.425C767.557 684.227 767.7 684.826 767.987 685.223C768.279 685.615 768.698 685.811 769.245 685.811ZM769.696 687.014L769.621 687.383C770.305 687.506 770.646 687.9 770.646 688.565C770.646 689.044 770.451 689.418 770.059 689.687C769.667 689.955 769.118 690.09 768.411 690.09L768.363 689.153C768.664 689.153 768.894 689.099 769.054 688.989C769.218 688.884 769.3 688.736 769.3 688.545C769.3 688.34 769.218 688.196 769.054 688.114C768.894 688.037 768.632 687.987 768.268 687.964L768.486 687.014H769.696ZM777.954 687C777.881 686.859 777.817 686.629 777.763 686.31C777.234 686.861 776.587 687.137 775.821 687.137C775.078 687.137 774.472 686.925 774.003 686.501C773.534 686.077 773.299 685.553 773.299 684.929C773.299 684.14 773.59 683.536 774.174 683.117C774.762 682.693 775.6 682.481 776.689 682.481H777.708V681.996C777.708 681.613 777.601 681.308 777.387 681.08C777.173 680.848 776.847 680.731 776.409 680.731C776.031 680.731 775.721 680.827 775.479 681.019C775.238 681.205 775.117 681.445 775.117 681.736H773.456C773.456 681.331 773.59 680.952 773.859 680.602C774.128 680.246 774.493 679.968 774.953 679.768C775.418 679.567 775.935 679.467 776.505 679.467C777.371 679.467 778.061 679.686 778.576 680.123C779.091 680.556 779.355 681.167 779.369 681.955V685.291C779.369 685.956 779.463 686.487 779.649 686.884V687H777.954ZM776.129 685.804C776.457 685.804 776.765 685.724 777.052 685.564C777.343 685.405 777.562 685.191 777.708 684.922V683.527H776.812C776.197 683.527 775.735 683.634 775.425 683.849C775.115 684.063 774.96 684.366 774.96 684.758C774.96 685.077 775.065 685.332 775.274 685.523C775.489 685.71 775.773 685.804 776.129 685.804ZM779.068 676.65C779.068 677.152 778.923 677.569 778.631 677.901C778.344 678.234 777.981 678.4 777.544 678.4C777.366 678.4 777.211 678.382 777.079 678.346C776.951 678.305 776.767 678.216 776.525 678.079C776.288 677.942 776.12 677.86 776.02 677.833C775.924 677.806 775.817 677.792 775.698 677.792C775.525 677.792 775.377 677.858 775.254 677.99C775.135 678.118 775.076 678.286 775.076 678.496L774.058 678.441C774.058 677.94 774.201 677.519 774.488 677.177C774.78 676.835 775.142 676.664 775.575 676.664C775.835 676.664 776.147 676.767 776.512 676.972C776.881 677.177 777.184 677.279 777.421 677.279C777.594 677.279 777.742 677.215 777.865 677.088C777.988 676.956 778.05 676.783 778.05 676.568L779.068 676.65ZM780.798 683.233C780.798 682.509 780.941 681.857 781.229 681.278C781.516 680.695 781.919 680.248 782.438 679.938C782.958 679.624 783.555 679.467 784.229 679.467C785.228 679.467 786.036 679.788 786.656 680.431C787.281 681.073 787.618 681.925 787.668 682.987L787.675 683.377C787.675 684.106 787.534 684.758 787.251 685.332C786.973 685.906 786.572 686.351 786.048 686.665C785.528 686.979 784.927 687.137 784.243 687.137C783.2 687.137 782.363 686.79 781.734 686.098C781.11 685.4 780.798 684.473 780.798 683.315V683.233ZM782.459 683.377C782.459 684.138 782.616 684.735 782.931 685.168C783.245 685.596 783.683 685.811 784.243 685.811C784.804 685.811 785.239 685.592 785.549 685.154C785.863 684.717 786.021 684.076 786.021 683.233C786.021 682.486 785.859 681.894 785.535 681.456C785.216 681.019 784.781 680.8 784.229 680.8C783.687 680.8 783.257 681.016 782.938 681.449C782.618 681.878 782.459 682.52 782.459 683.377ZM795.222 682.037L796.63 679.604H798.476L796.213 683.247L798.551 687H796.719L795.242 684.471L793.772 687H791.927L794.265 683.247L792.009 679.604H793.841L795.222 682.037Z" fill="#2B80FF"/>
<path d="M716.979 663.707L717.717 657.203H724.889V659.321H719.8L719.483 662.072C720.087 661.75 720.729 661.589 721.408 661.589C722.627 661.589 723.582 661.967 724.273 662.723C724.965 663.479 725.311 664.536 725.311 665.896C725.311 666.722 725.135 667.463 724.783 668.119C724.438 668.77 723.939 669.276 723.289 669.64C722.639 669.997 721.871 670.176 720.986 670.176C720.213 670.176 719.495 670.021 718.833 669.71C718.171 669.394 717.646 668.951 717.26 668.383C716.879 667.814 716.677 667.167 716.653 666.44H719.167C719.22 666.974 719.404 667.39 719.721 667.688C720.043 667.981 720.462 668.128 720.978 668.128C721.552 668.128 721.994 667.923 722.305 667.513C722.615 667.097 722.771 666.511 722.771 665.755C722.771 665.028 722.592 664.472 722.234 664.085C721.877 663.698 721.37 663.505 720.714 663.505C720.11 663.505 719.621 663.663 719.246 663.979L719 664.208L716.979 663.707ZM735.638 658.627L730.689 670H728.009L732.966 659.26H726.603V657.203H735.638V658.627Z" fill="#001737"/>
<path d="M937.562 687H935.84V677.047H937.562V687ZM941.069 679.604L941.117 680.458C941.664 679.797 942.382 679.467 943.271 679.467C944.811 679.467 945.595 680.349 945.622 682.112V687H943.961V682.208C943.961 681.739 943.858 681.392 943.653 681.169C943.453 680.941 943.122 680.827 942.662 680.827C941.992 680.827 941.493 681.13 941.165 681.736V687H939.504V679.604H941.069ZM947.905 687V680.834H946.777V679.604H947.905V678.927C947.905 678.106 948.133 677.473 948.589 677.026C949.045 676.58 949.683 676.356 950.503 676.356C950.795 676.356 951.104 676.397 951.433 676.479L951.392 677.778C951.209 677.742 950.997 677.724 950.756 677.724C949.963 677.724 949.566 678.132 949.566 678.947V679.604H951.07V680.834H949.566V687H947.905ZM951.973 683.233C951.973 682.509 952.116 681.857 952.403 681.278C952.69 680.695 953.094 680.248 953.613 679.938C954.133 679.624 954.73 679.467 955.404 679.467C956.402 679.467 957.211 679.788 957.831 680.431C958.455 681.073 958.793 681.925 958.843 682.987L958.85 683.377C958.85 684.106 958.708 684.758 958.426 685.332C958.148 685.906 957.747 686.351 957.223 686.665C956.703 686.979 956.102 687.137 955.418 687.137C954.374 687.137 953.538 686.79 952.909 686.098C952.285 685.4 951.973 684.473 951.973 683.315V683.233ZM953.634 683.377C953.634 684.138 953.791 684.735 954.105 685.168C954.42 685.596 954.857 685.811 955.418 685.811C955.979 685.811 956.414 685.592 956.724 685.154C957.038 684.717 957.195 684.076 957.195 683.233C957.195 682.486 957.034 681.894 956.71 681.456C956.391 681.019 955.956 680.8 955.404 680.8C954.862 680.8 954.431 681.016 954.112 681.449C953.793 681.878 953.634 682.52 953.634 683.377ZM964.127 681.121C963.908 681.085 963.683 681.066 963.45 681.066C962.689 681.066 962.176 681.358 961.912 681.941V687H960.251V679.604H961.837L961.878 680.431C962.279 679.788 962.835 679.467 963.546 679.467C963.783 679.467 963.979 679.499 964.134 679.562L964.127 681.121ZM966.738 679.604L966.786 680.376C967.306 679.77 968.017 679.467 968.919 679.467C969.908 679.467 970.585 679.845 970.949 680.602C971.487 679.845 972.243 679.467 973.219 679.467C974.035 679.467 974.641 679.692 975.037 680.144C975.438 680.595 975.643 681.26 975.652 682.14V687H973.991V682.188C973.991 681.718 973.889 681.374 973.684 681.155C973.479 680.937 973.139 680.827 972.665 680.827C972.287 680.827 971.977 680.93 971.735 681.135C971.498 681.335 971.332 681.6 971.236 681.928L971.243 687H969.582V682.133C969.559 681.262 969.115 680.827 968.249 680.827C967.584 680.827 967.112 681.098 966.834 681.641V687H965.173V679.604H966.738ZM981.777 687C981.704 686.859 981.641 686.629 981.586 686.31C981.057 686.861 980.41 687.137 979.645 687.137C978.902 687.137 978.296 686.925 977.826 686.501C977.357 686.077 977.122 685.553 977.122 684.929C977.122 684.14 977.414 683.536 977.997 683.117C978.585 682.693 979.424 682.481 980.513 682.481H981.531V681.996C981.531 681.613 981.424 681.308 981.21 681.08C980.996 680.848 980.67 680.731 980.232 680.731C979.854 680.731 979.544 680.827 979.303 681.019C979.061 681.205 978.94 681.445 978.94 681.736H977.279C977.279 681.331 977.414 680.952 977.683 680.602C977.951 680.246 978.316 679.968 978.776 679.768C979.241 679.567 979.758 679.467 980.328 679.467C981.194 679.467 981.884 679.686 982.399 680.123C982.914 680.556 983.179 681.167 983.192 681.955V685.291C983.192 685.956 983.286 686.487 983.473 686.884V687H981.777ZM979.952 685.804C980.28 685.804 980.588 685.724 980.875 685.564C981.167 685.405 981.385 685.191 981.531 684.922V683.527H980.636C980.021 683.527 979.558 683.634 979.248 683.849C978.938 684.063 978.783 684.366 978.783 684.758C978.783 685.077 978.888 685.332 979.098 685.523C979.312 685.71 979.597 685.804 979.952 685.804ZM987.971 685.811C988.385 685.811 988.729 685.69 989.003 685.448C989.276 685.207 989.422 684.908 989.44 684.553H991.006C990.988 685.013 990.844 685.444 990.575 685.845C990.306 686.241 989.942 686.556 989.481 686.788C989.021 687.021 988.524 687.137 987.991 687.137C986.957 687.137 986.136 686.802 985.53 686.132C984.924 685.462 984.621 684.537 984.621 683.356V683.186C984.621 682.06 984.922 681.16 985.523 680.485C986.125 679.806 986.945 679.467 987.984 679.467C988.864 679.467 989.579 679.724 990.131 680.239C990.687 680.75 990.979 681.422 991.006 682.256H989.44C989.422 681.832 989.276 681.483 989.003 681.21C988.734 680.937 988.39 680.8 987.971 680.8C987.433 680.8 987.018 680.996 986.727 681.388C986.435 681.775 986.287 682.365 986.282 683.158V683.425C986.282 684.227 986.426 684.826 986.713 685.223C987.005 685.615 987.424 685.811 987.971 685.811ZM988.422 687.014L988.347 687.383C989.03 687.506 989.372 687.9 989.372 688.565C989.372 689.044 989.176 689.418 988.784 689.687C988.392 689.955 987.843 690.09 987.137 690.09L987.089 689.153C987.39 689.153 987.62 689.099 987.779 688.989C987.943 688.884 988.025 688.736 988.025 688.545C988.025 688.34 987.943 688.196 987.779 688.114C987.62 688.037 987.358 687.987 986.993 687.964L987.212 687.014H988.422ZM996.68 687C996.607 686.859 996.543 686.629 996.488 686.31C995.96 686.861 995.312 687.137 994.547 687.137C993.804 687.137 993.198 686.925 992.729 686.501C992.259 686.077 992.024 685.553 992.024 684.929C992.024 684.14 992.316 683.536 992.899 683.117C993.487 682.693 994.326 682.481 995.415 682.481H996.434V681.996C996.434 681.613 996.326 681.308 996.112 681.08C995.898 680.848 995.572 680.731 995.135 680.731C994.757 680.731 994.447 680.827 994.205 681.019C993.964 681.205 993.843 681.445 993.843 681.736H992.182C992.182 681.331 992.316 680.952 992.585 680.602C992.854 680.246 993.218 679.968 993.679 679.768C994.144 679.567 994.661 679.467 995.23 679.467C996.096 679.467 996.787 679.686 997.302 680.123C997.817 680.556 998.081 681.167 998.095 681.955V685.291C998.095 685.956 998.188 686.487 998.375 686.884V687H996.68ZM994.854 685.804C995.183 685.804 995.49 685.724 995.777 685.564C996.069 685.405 996.288 685.191 996.434 684.922V683.527H995.538C994.923 683.527 994.46 683.634 994.15 683.849C993.84 684.063 993.686 684.366 993.686 684.758C993.686 685.077 993.79 685.332 994 685.523C994.214 685.71 994.499 685.804 994.854 685.804ZM997.794 676.65C997.794 677.152 997.648 677.569 997.356 677.901C997.069 678.234 996.707 678.4 996.27 678.4C996.092 678.4 995.937 678.382 995.805 678.346C995.677 678.305 995.493 678.216 995.251 678.079C995.014 677.942 994.845 677.86 994.745 677.833C994.649 677.806 994.542 677.792 994.424 677.792C994.251 677.792 994.103 677.858 993.979 677.99C993.861 678.118 993.802 678.286 993.802 678.496L992.783 678.441C992.783 677.94 992.927 677.519 993.214 677.177C993.506 676.835 993.868 676.664 994.301 676.664C994.561 676.664 994.873 676.767 995.237 676.972C995.606 677.177 995.91 677.279 996.146 677.279C996.32 677.279 996.468 677.215 996.591 677.088C996.714 676.956 996.775 676.783 996.775 676.568L997.794 676.65ZM999.523 683.233C999.523 682.509 999.667 681.857 999.954 681.278C1000.24 680.695 1000.64 680.248 1001.16 679.938C1001.68 679.624 1002.28 679.467 1002.96 679.467C1003.95 679.467 1004.76 679.788 1005.38 680.431C1006.01 681.073 1006.34 681.925 1006.39 682.987L1006.4 683.377C1006.4 684.106 1006.26 684.758 1005.98 685.332C1005.7 685.906 1005.3 686.351 1004.77 686.665C1004.25 686.979 1003.65 687.137 1002.97 687.137C1001.93 687.137 1001.09 686.79 1000.46 686.098C999.836 685.4 999.523 684.473 999.523 683.315V683.233ZM1001.18 683.377C1001.18 684.138 1001.34 684.735 1001.66 685.168C1001.97 685.596 1002.41 685.811 1002.97 685.811C1003.53 685.811 1003.96 685.592 1004.27 685.154C1004.59 684.717 1004.75 684.076 1004.75 683.233C1004.75 682.486 1004.58 681.894 1004.26 681.456C1003.94 681.019 1003.51 680.8 1002.96 680.8C1002.41 680.8 1001.98 681.016 1001.66 681.449C1001.34 681.878 1001.18 682.52 1001.18 683.377ZM1013.88 684.621L1015.38 679.604H1017.15L1014.21 688.121C1013.76 689.365 1013 689.987 1011.92 689.987C1011.68 689.987 1011.41 689.946 1011.12 689.864V688.579L1011.43 688.6C1011.85 688.6 1012.17 688.522 1012.38 688.367C1012.59 688.217 1012.76 687.962 1012.88 687.602L1013.12 686.966L1010.52 679.604H1012.31L1013.88 684.621Z" fill="#2B80FF"/>
<path d="M944.367 670H935.596V668.26L939.735 663.848C940.304 663.227 940.723 662.685 940.992 662.222C941.268 661.759 941.405 661.319 941.405 660.903C941.405 660.335 941.262 659.89 940.975 659.567C940.688 659.239 940.277 659.075 939.744 659.075C939.17 659.075 938.716 659.274 938.382 659.673C938.054 660.065 937.89 660.584 937.89 661.229H935.341C935.341 660.449 935.525 659.737 935.895 659.093C936.27 658.448 936.797 657.944 937.477 657.581C938.156 657.212 938.927 657.027 939.788 657.027C941.106 657.027 942.129 657.344 942.855 657.977C943.588 658.609 943.954 659.503 943.954 660.657C943.954 661.29 943.79 661.935 943.462 662.591C943.134 663.247 942.571 664.012 941.774 664.885L938.865 667.952H944.367V670ZM952.102 670H949.562V660.209L946.529 661.149V659.084L951.829 657.186H952.102V670Z" fill="#001737"/>
<path d="M719.504 701.738L721.549 698.469H722.873L720.178 702.699L722.938 707H721.602L719.504 703.672L717.395 707H716.064L718.83 702.699L716.129 698.469H717.447L719.504 701.738ZM727.027 701.738L729.072 698.469H730.396L727.701 702.699L730.461 707H729.125L727.027 703.672L724.918 707H723.588L726.354 702.699L723.652 698.469H724.971L727.027 701.738ZM734.551 701.738L736.596 698.469H737.92L735.225 702.699L737.984 707H736.648L734.551 703.672L732.441 707H731.111L733.877 702.699L731.176 698.469H732.494L734.551 701.738Z" fill="#495463"/>
<path d="M937.504 701.738L939.549 698.469H940.873L938.178 702.699L940.938 707H939.602L937.504 703.672L935.395 707H934.064L936.83 702.699L934.129 698.469H935.447L937.504 701.738ZM945.027 701.738L947.072 698.469H948.396L945.701 702.699L948.461 707H947.125L945.027 703.672L942.918 707H941.588L944.354 702.699L941.652 698.469H942.971L945.027 701.738ZM952.551 701.738L954.596 698.469H955.92L953.225 702.699L955.984 707H954.648L952.551 703.672L950.441 707H949.111L951.877 702.699L949.176 698.469H950.494L952.551 701.738Z" fill="#495463"/>
<path d="M504.584 703.25C504.357 703.52 504.086 703.736 503.77 703.9C503.457 704.064 503.113 704.146 502.738 704.146C502.246 704.146 501.816 704.025 501.449 703.783C501.086 703.541 500.805 703.201 500.605 702.764C500.406 702.322 500.307 701.836 500.307 701.305C500.307 700.734 500.414 700.221 500.629 699.764C500.848 699.307 501.156 698.957 501.555 698.715C501.953 698.473 502.418 698.352 502.949 698.352C503.793 698.352 504.457 698.668 504.941 699.301C505.43 699.93 505.674 700.789 505.674 701.879V702.195C505.674 703.855 505.346 705.068 504.689 705.834C504.033 706.596 503.043 706.986 501.719 707.006H501.508V706.092H501.736C502.631 706.076 503.318 705.844 503.799 705.395C504.279 704.941 504.541 704.227 504.584 703.25ZM502.914 703.25C503.277 703.25 503.611 703.139 503.916 702.916C504.225 702.693 504.449 702.418 504.59 702.09V701.656C504.59 700.945 504.436 700.367 504.127 699.922C503.818 699.477 503.428 699.254 502.955 699.254C502.479 699.254 502.096 699.438 501.807 699.805C501.518 700.168 501.373 700.648 501.373 701.246C501.373 701.828 501.512 702.309 501.789 702.688C502.07 703.062 502.445 703.25 502.914 703.25ZM512.518 703.361C512.518 704.631 512.301 705.574 511.867 706.191C511.434 706.809 510.756 707.117 509.834 707.117C508.924 707.117 508.25 706.816 507.812 706.215C507.375 705.609 507.148 704.707 507.133 703.508V702.061C507.133 700.807 507.35 699.875 507.783 699.266C508.217 698.656 508.896 698.352 509.822 698.352C510.74 698.352 511.416 698.646 511.85 699.236C512.283 699.822 512.506 700.729 512.518 701.955V703.361ZM511.434 701.879C511.434 700.961 511.305 700.293 511.047 699.875C510.789 699.453 510.381 699.242 509.822 699.242C509.268 699.242 508.863 699.451 508.609 699.869C508.355 700.287 508.225 700.93 508.217 701.797V703.531C508.217 704.453 508.35 705.135 508.615 705.576C508.885 706.014 509.291 706.232 509.834 706.232C510.369 706.232 510.766 706.025 511.023 705.611C511.285 705.197 511.422 704.545 511.434 703.654V701.879ZM513.812 700.109C513.812 699.598 513.975 699.176 514.299 698.844C514.627 698.512 515.047 698.346 515.559 698.346C516.078 698.346 516.498 698.514 516.818 698.85C517.143 699.182 517.305 699.613 517.305 700.145V700.561C517.305 701.076 517.141 701.498 516.812 701.826C516.488 702.15 516.074 702.312 515.57 702.312C515.062 702.312 514.643 702.15 514.311 701.826C513.979 701.498 513.812 701.062 513.812 700.52V700.109ZM514.621 700.561C514.621 700.865 514.707 701.117 514.879 701.316C515.051 701.512 515.281 701.609 515.57 701.609C515.848 701.609 516.07 701.514 516.238 701.322C516.41 701.131 516.496 700.869 516.496 700.537V700.109C516.496 699.805 516.412 699.553 516.244 699.354C516.076 699.154 515.848 699.055 515.559 699.055C515.27 699.055 515.041 699.154 514.873 699.354C514.705 699.553 514.621 699.812 514.621 700.133V700.561ZM517.967 704.908C517.967 704.396 518.129 703.977 518.453 703.648C518.781 703.316 519.201 703.15 519.713 703.15C520.225 703.15 520.645 703.314 520.973 703.643C521.301 703.971 521.465 704.406 521.465 704.949V705.365C521.465 705.877 521.301 706.299 520.973 706.631C520.648 706.959 520.232 707.123 519.725 707.123C519.217 707.123 518.797 706.961 518.465 706.637C518.133 706.309 517.967 705.873 517.967 705.33V704.908ZM518.775 705.365C518.775 705.674 518.861 705.928 519.033 706.127C519.205 706.322 519.436 706.42 519.725 706.42C520.006 706.42 520.23 706.324 520.398 706.133C520.566 705.938 520.65 705.674 520.65 705.342V704.908C520.65 704.6 520.564 704.348 520.393 704.152C520.225 703.957 519.998 703.859 519.713 703.859C519.436 703.859 519.209 703.957 519.033 704.152C518.861 704.344 518.775 704.604 518.775 704.932V705.365ZM515.816 706.355L515.201 705.969L519.367 699.301L519.982 699.688L515.816 706.355Z" fill="#495463"/>
<path d="M277.034 707H275.944V699.775L273.759 700.578V699.594L276.864 698.428H277.034V707ZM285.56 703.361C285.56 704.631 285.343 705.574 284.909 706.191C284.476 706.809 283.798 707.117 282.876 707.117C281.966 707.117 281.292 706.816 280.854 706.215C280.417 705.609 280.19 704.707 280.175 703.508V702.061C280.175 700.807 280.392 699.875 280.825 699.266C281.259 698.656 281.938 698.352 282.864 698.352C283.782 698.352 284.458 698.646 284.892 699.236C285.325 699.822 285.548 700.729 285.56 701.955V703.361ZM284.476 701.879C284.476 700.961 284.347 700.293 284.089 699.875C283.831 699.453 283.423 699.242 282.864 699.242C282.31 699.242 281.905 699.451 281.651 699.869C281.397 700.287 281.267 700.93 281.259 701.797V703.531C281.259 704.453 281.392 705.135 281.657 705.576C281.927 706.014 282.333 706.232 282.876 706.232C283.411 706.232 283.808 706.025 284.065 705.611C284.327 705.197 284.464 704.545 284.476 703.654V701.879ZM286.854 700.109C286.854 699.598 287.017 699.176 287.341 698.844C287.669 698.512 288.089 698.346 288.601 698.346C289.12 698.346 289.54 698.514 289.86 698.85C290.185 699.182 290.347 699.613 290.347 700.145V700.561C290.347 701.076 290.183 701.498 289.854 701.826C289.53 702.15 289.116 702.312 288.612 702.312C288.104 702.312 287.685 702.15 287.353 701.826C287.021 701.498 286.854 701.062 286.854 700.52V700.109ZM287.663 700.561C287.663 700.865 287.749 701.117 287.921 701.316C288.093 701.512 288.323 701.609 288.612 701.609C288.89 701.609 289.112 701.514 289.28 701.322C289.452 701.131 289.538 700.869 289.538 700.537V700.109C289.538 699.805 289.454 699.553 289.286 699.354C289.118 699.154 288.89 699.055 288.601 699.055C288.312 699.055 288.083 699.154 287.915 699.354C287.747 699.553 287.663 699.812 287.663 700.133V700.561ZM291.009 704.908C291.009 704.396 291.171 703.977 291.495 703.648C291.823 703.316 292.243 703.15 292.755 703.15C293.267 703.15 293.687 703.314 294.015 703.643C294.343 703.971 294.507 704.406 294.507 704.949V705.365C294.507 705.877 294.343 706.299 294.015 706.631C293.69 706.959 293.274 707.123 292.767 707.123C292.259 707.123 291.839 706.961 291.507 706.637C291.175 706.309 291.009 705.873 291.009 705.33V704.908ZM291.817 705.365C291.817 705.674 291.903 705.928 292.075 706.127C292.247 706.322 292.478 706.42 292.767 706.42C293.048 706.42 293.272 706.324 293.44 706.133C293.608 705.938 293.692 705.674 293.692 705.342V704.908C293.692 704.6 293.606 704.348 293.435 704.152C293.267 703.957 293.04 703.859 292.755 703.859C292.478 703.859 292.251 703.957 292.075 704.152C291.903 704.344 291.817 704.604 291.817 704.932V705.365ZM288.858 706.355L288.243 705.969L292.409 699.301L293.024 699.688L288.858 706.355Z" fill="#495463"/>
<g clip-path="url(#clip3)">
<rect x="42.8262" y="614" width="217" height="139" fill="#030AAC"/>
<mask id="mask0" mask-type="alpha" maskUnits="userSpaceOnUse" x="42" y="614" width="218" height="139">
<rect x="42.8262" y="614" width="217" height="139" fill="white"/>
</mask>
<g mask="url(#mask0)">
</g>
<path d="M105.56 681H101.326V664.682L96.2725 666.249V662.807L105.105 659.643H105.56V681ZM113.777 686.347L111.565 685.189L112.093 684.237C112.747 683.046 113.084 681.859 113.104 680.678V677.396H116.678L116.663 680.326C116.653 681.41 116.38 682.504 115.843 683.607C115.306 684.711 114.617 685.624 113.777 686.347ZM134.183 672.182C134.183 675.131 133.572 677.387 132.352 678.949C131.131 680.512 129.344 681.293 126.99 681.293C124.666 681.293 122.889 680.526 121.658 678.993C120.428 677.46 119.798 675.263 119.769 672.401V668.476C119.769 665.497 120.384 663.236 121.614 661.693C122.854 660.15 124.637 659.379 126.961 659.379C129.285 659.379 131.062 660.146 132.293 661.679C133.523 663.202 134.153 665.395 134.183 668.256V672.182ZM129.949 667.875C129.949 666.107 129.705 664.823 129.217 664.022C128.738 663.212 127.986 662.807 126.961 662.807C125.965 662.807 125.228 663.192 124.749 663.964C124.28 664.726 124.031 665.922 124.002 667.553V672.738C124.002 674.477 124.236 675.771 124.705 676.62C125.184 677.46 125.945 677.88 126.99 677.88C128.025 677.88 128.772 677.475 129.231 676.664C129.69 675.854 129.93 674.613 129.949 672.943V667.875ZM151.409 672.182C151.409 675.131 150.799 677.387 149.578 678.949C148.357 680.512 146.57 681.293 144.217 681.293C141.893 681.293 140.115 680.526 138.885 678.993C137.654 677.46 137.024 675.263 136.995 672.401V668.476C136.995 665.497 137.61 663.236 138.841 661.693C140.081 660.15 141.863 659.379 144.188 659.379C146.512 659.379 148.289 660.146 149.52 661.679C150.75 663.202 151.38 665.395 151.409 668.256V672.182ZM147.176 667.875C147.176 666.107 146.932 664.823 146.443 664.022C145.965 663.212 145.213 662.807 144.188 662.807C143.191 662.807 142.454 663.192 141.976 663.964C141.507 664.726 141.258 665.922 141.229 667.553V672.738C141.229 674.477 141.463 675.771 141.932 676.62C142.41 677.46 143.172 677.88 144.217 677.88C145.252 677.88 145.999 677.475 146.458 676.664C146.917 675.854 147.156 674.613 147.176 672.943V667.875ZM168.636 672.182C168.636 675.131 168.025 677.387 166.805 678.949C165.584 680.512 163.797 681.293 161.443 681.293C159.119 681.293 157.342 680.526 156.111 678.993C154.881 677.46 154.251 675.263 154.222 672.401V668.476C154.222 665.497 154.837 663.236 156.067 661.693C157.308 660.15 159.09 659.379 161.414 659.379C163.738 659.379 165.516 660.146 166.746 661.679C167.977 663.202 168.606 665.395 168.636 668.256V672.182ZM164.402 667.875C164.402 666.107 164.158 664.823 163.67 664.022C163.191 663.212 162.439 662.807 161.414 662.807C160.418 662.807 159.681 663.192 159.202 663.964C158.733 664.726 158.484 665.922 158.455 667.553V672.738C158.455 674.477 158.689 675.771 159.158 676.62C159.637 677.46 160.398 677.88 161.443 677.88C162.479 677.88 163.226 677.475 163.685 676.664C164.144 675.854 164.383 674.613 164.402 672.943V667.875Z" fill="white"/>
<path d="M104.373 696.996H100.383V708H98.1768V696.996H94.2217V695.203H104.373V696.996ZM103.626 703.157C103.626 702.226 103.811 701.388 104.18 700.644C104.549 699.894 105.067 699.319 105.735 698.921C106.403 698.517 107.171 698.314 108.038 698.314C109.321 698.314 110.361 698.728 111.158 699.554C111.961 700.38 112.395 701.476 112.459 702.841L112.468 703.342C112.468 704.279 112.286 705.117 111.923 705.855C111.565 706.594 111.05 707.165 110.376 707.569C109.708 707.974 108.935 708.176 108.056 708.176C106.714 708.176 105.639 707.73 104.83 706.84C104.027 705.943 103.626 704.751 103.626 703.263V703.157ZM105.762 703.342C105.762 704.32 105.964 705.088 106.368 705.645C106.772 706.195 107.335 706.471 108.056 706.471C108.776 706.471 109.336 706.189 109.734 705.627C110.139 705.064 110.341 704.241 110.341 703.157C110.341 702.196 110.133 701.435 109.717 700.872C109.307 700.31 108.747 700.028 108.038 700.028C107.341 700.028 106.787 700.307 106.377 700.863C105.967 701.414 105.762 702.24 105.762 703.342ZM116.95 696.179V698.49H118.629V700.072H116.95V705.381C116.95 705.744 117.021 706.008 117.161 706.172C117.308 706.33 117.565 706.409 117.935 706.409C118.181 706.409 118.43 706.38 118.682 706.321V707.974C118.195 708.108 117.727 708.176 117.275 708.176C115.635 708.176 114.814 707.271 114.814 705.46V700.072H113.25V698.49H114.814V696.179H116.95ZM125.95 708C125.856 707.818 125.774 707.522 125.704 707.112C125.024 707.821 124.192 708.176 123.208 708.176C122.253 708.176 121.474 707.903 120.87 707.358C120.267 706.813 119.965 706.14 119.965 705.337C119.965 704.323 120.34 703.547 121.09 703.008C121.846 702.463 122.924 702.19 124.324 702.19H125.634V701.566C125.634 701.074 125.496 700.682 125.221 700.389C124.945 700.09 124.526 699.94 123.964 699.94C123.478 699.94 123.079 700.063 122.769 700.31C122.458 700.55 122.303 700.857 122.303 701.232H120.167C120.167 700.711 120.34 700.225 120.686 699.773C121.031 699.316 121.5 698.959 122.092 698.701C122.689 698.443 123.354 698.314 124.087 698.314C125.2 698.314 126.088 698.596 126.75 699.158C127.412 699.715 127.752 700.5 127.77 701.514V705.803C127.77 706.658 127.89 707.341 128.13 707.851V708H125.95ZM123.604 706.462C124.025 706.462 124.421 706.359 124.79 706.154C125.165 705.949 125.446 705.674 125.634 705.328V703.535H124.482C123.691 703.535 123.097 703.673 122.698 703.948C122.3 704.224 122.101 704.613 122.101 705.117C122.101 705.527 122.235 705.855 122.505 706.102C122.78 706.342 123.146 706.462 123.604 706.462ZM132.278 708H130.143V694.5H132.278V708Z" fill="white"/>
</g>
</g>
</g>
<rect x="41.3262" y="588.5" width="1089.36" height="166.537" stroke="#F1F1F1"/>
<g clip-path="url(#clip4)">
<rect x="41" y="117" width="279.44" height="38" rx="3" fill="#DDE4EB"/>
<path d="M138.241 143H129.856V141.831L134.286 136.909C134.942 136.165 135.394 135.562 135.64 135.099C135.892 134.63 136.018 134.146 136.018 133.648C136.018 132.98 135.815 132.433 135.411 132.005C135.007 131.577 134.468 131.363 133.794 131.363C132.985 131.363 132.355 131.595 131.904 132.058C131.459 132.515 131.236 133.153 131.236 133.974H129.61C129.61 132.796 129.988 131.844 130.744 131.117C131.506 130.391 132.522 130.027 133.794 130.027C134.983 130.027 135.924 130.341 136.615 130.968C137.307 131.589 137.652 132.418 137.652 133.455C137.652 134.715 136.85 136.215 135.244 137.955L131.816 141.673H138.241V143ZM140.711 136.584L141.361 130.203H147.918V131.706H142.741L142.354 135.195C142.981 134.826 143.693 134.642 144.49 134.642C145.656 134.642 146.582 135.028 147.268 135.802C147.953 136.569 148.296 137.609 148.296 138.922C148.296 140.24 147.938 141.28 147.224 142.042C146.515 142.798 145.521 143.176 144.244 143.176C143.113 143.176 142.19 142.862 141.476 142.235C140.761 141.608 140.354 140.741 140.254 139.634H141.792C141.892 140.366 142.152 140.92 142.574 141.295C142.996 141.664 143.553 141.849 144.244 141.849C145 141.849 145.592 141.591 146.02 141.075C146.453 140.56 146.67 139.848 146.67 138.939C146.67 138.084 146.436 137.398 145.967 136.883C145.504 136.361 144.886 136.101 144.112 136.101C143.403 136.101 142.847 136.256 142.442 136.566L142.012 136.918L140.711 136.584ZM150.563 144.099H149.166L154.51 130.203H155.898L150.563 144.099ZM165.514 137.542C165.514 139.446 165.188 140.861 164.538 141.787C163.888 142.713 162.871 143.176 161.488 143.176C160.123 143.176 159.112 142.725 158.456 141.822C157.8 140.914 157.46 139.561 157.437 137.762V135.591C157.437 133.71 157.762 132.312 158.412 131.398C159.062 130.484 160.082 130.027 161.471 130.027C162.848 130.027 163.861 130.47 164.512 131.354C165.162 132.233 165.496 133.593 165.514 135.433V137.542ZM163.888 135.318C163.888 133.941 163.694 132.939 163.308 132.312C162.921 131.68 162.309 131.363 161.471 131.363C160.639 131.363 160.032 131.677 159.651 132.304C159.271 132.931 159.074 133.895 159.062 135.195V137.797C159.062 139.18 159.262 140.202 159.66 140.864C160.064 141.521 160.674 141.849 161.488 141.849C162.291 141.849 162.886 141.538 163.272 140.917C163.665 140.296 163.87 139.317 163.888 137.981V135.318ZM173.978 130.194V131.574H173.679C172.413 131.598 171.405 131.973 170.655 132.699C169.905 133.426 169.472 134.448 169.354 135.767C170.028 134.993 170.948 134.606 172.114 134.606C173.228 134.606 174.115 134.999 174.777 135.784C175.445 136.569 175.779 137.583 175.779 138.825C175.779 140.144 175.419 141.198 174.698 141.989C173.983 142.78 173.022 143.176 171.815 143.176C170.591 143.176 169.598 142.707 168.836 141.77C168.074 140.826 167.693 139.613 167.693 138.131V137.507C167.693 135.151 168.194 133.353 169.196 132.11C170.204 130.862 171.701 130.224 173.688 130.194H173.978ZM171.842 135.96C171.285 135.96 170.772 136.127 170.304 136.461C169.835 136.795 169.51 137.214 169.328 137.718V138.315C169.328 139.37 169.565 140.22 170.04 140.864C170.515 141.509 171.106 141.831 171.815 141.831C172.548 141.831 173.122 141.562 173.538 141.022C173.96 140.483 174.171 139.777 174.171 138.904C174.171 138.025 173.957 137.316 173.529 136.777C173.107 136.232 172.545 135.96 171.842 135.96ZM178.196 144.099H176.799L182.143 130.203H183.531L178.196 144.099ZM193.507 143H185.122V141.831L189.552 136.909C190.208 136.165 190.659 135.562 190.905 135.099C191.157 134.63 191.283 134.146 191.283 133.648C191.283 132.98 191.081 132.433 190.677 132.005C190.272 131.577 189.733 131.363 189.06 131.363C188.251 131.363 187.621 131.595 187.17 132.058C186.725 132.515 186.502 133.153 186.502 133.974H184.876C184.876 132.796 185.254 131.844 186.01 131.117C186.771 130.391 187.788 130.027 189.06 130.027C190.249 130.027 191.189 130.341 191.881 130.968C192.572 131.589 192.918 132.418 192.918 133.455C192.918 134.715 192.115 136.215 190.51 137.955L187.082 141.673H193.507V143ZM203.254 137.542C203.254 139.446 202.929 140.861 202.278 141.787C201.628 142.713 200.611 143.176 199.229 143.176C197.863 143.176 196.853 142.725 196.196 141.822C195.54 140.914 195.2 139.561 195.177 137.762V135.591C195.177 133.71 195.502 132.312 196.152 131.398C196.803 130.484 197.822 130.027 199.211 130.027C200.588 130.027 201.602 130.47 202.252 131.354C202.902 132.233 203.236 133.593 203.254 135.433V137.542ZM201.628 135.318C201.628 133.941 201.435 132.939 201.048 132.312C200.661 131.68 200.049 131.363 199.211 131.363C198.379 131.363 197.772 131.677 197.392 132.304C197.011 132.931 196.814 133.895 196.803 135.195V137.797C196.803 139.18 197.002 140.202 197.4 140.864C197.805 141.521 198.414 141.849 199.229 141.849C200.031 141.849 200.626 141.538 201.013 140.917C201.405 140.296 201.61 139.317 201.628 137.981V135.318ZM213.722 143H205.337V141.831L209.767 136.909C210.423 136.165 210.874 135.562 211.12 135.099C211.372 134.63 211.498 134.146 211.498 133.648C211.498 132.98 211.296 132.433 210.892 132.005C210.487 131.577 209.948 131.363 209.274 131.363C208.466 131.363 207.836 131.595 207.385 132.058C206.939 132.515 206.717 133.153 206.717 133.974H205.091C205.091 132.796 205.469 131.844 206.225 131.117C206.986 130.391 208.003 130.027 209.274 130.027C210.464 130.027 211.404 130.341 212.096 130.968C212.787 131.589 213.133 132.418 213.133 133.455C213.133 134.715 212.33 136.215 210.725 137.955L207.297 141.673H213.722V143ZM223.469 137.542C223.469 139.446 223.144 140.861 222.493 141.787C221.843 142.713 220.826 143.176 219.443 143.176C218.078 143.176 217.067 142.725 216.411 141.822C215.755 140.914 215.415 139.561 215.392 137.762V135.591C215.392 133.71 215.717 132.312 216.367 131.398C217.018 130.484 218.037 130.027 219.426 130.027C220.803 130.027 221.816 130.47 222.467 131.354C223.117 132.233 223.451 133.593 223.469 135.433V137.542ZM221.843 135.318C221.843 133.941 221.649 132.939 221.263 132.312C220.876 131.68 220.264 131.363 219.426 131.363C218.594 131.363 217.987 131.677 217.606 132.304C217.226 132.931 217.029 133.895 217.018 135.195V137.797C217.018 139.18 217.217 140.202 217.615 140.864C218.02 141.521 218.629 141.849 219.443 141.849C220.246 141.849 220.841 141.538 221.228 140.917C221.62 140.296 221.825 139.317 221.843 137.981V135.318Z" fill="#001737"/>
<path d="M299.83 140.47L304.648 136L299.83 131.529" stroke="#2B80FF" stroke-width="2" stroke-linecap="round" stroke-linejoin="round"/>
<path d="M267.979 133.766L272.261 138.236L276.544 133.766" stroke="#2B80FF" stroke-width="2" stroke-linecap="round" stroke-linejoin="round"/>
<path d="M286.715 118.117V153.882" stroke="#C4D0DC" stroke-linecap="square"/>
<path d="M74.7254 153.883V118.118" stroke="#C4D0DC" stroke-linecap="square"/>
<path d="M60.2719 140.47L55.9893 136L60.2719 131.529" stroke="#2B80FF" stroke-width="2" stroke-linecap="round" stroke-linejoin="round"/>
<g clip-path="url(#clip5)">
<rect x="1042.57" y="116.684" width="86.6318" height="38.75" rx="3" fill="#DDE4EB"/>
<path d="M1056.32 135.083H1052.01V138.61H1057.02V139.684H1050.69V129.73H1056.95V130.811H1052.01V134.01H1056.32V135.083ZM1060.93 134.987L1062.57 132.287H1064.05L1061.63 135.944L1064.13 139.684H1062.66L1060.95 136.915L1059.25 139.684H1057.78L1060.27 135.944L1057.85 132.287H1059.31L1060.93 134.987ZM1071.65 136.067C1071.65 137.193 1071.39 138.1 1070.87 138.788C1070.36 139.476 1069.66 139.82 1068.78 139.82C1067.88 139.82 1067.18 139.535 1066.66 138.966V142.527H1065.4V132.287H1066.55L1066.61 133.107C1067.13 132.469 1067.84 132.15 1068.76 132.15C1069.65 132.15 1070.35 132.485 1070.87 133.155C1071.39 133.825 1071.65 134.757 1071.65 135.951V136.067ZM1070.38 135.924C1070.38 135.09 1070.2 134.431 1069.85 133.948C1069.49 133.465 1069 133.224 1068.38 133.224C1067.62 133.224 1067.04 133.563 1066.66 134.242V137.776C1067.04 138.451 1067.62 138.788 1068.4 138.788C1069 138.788 1069.49 138.549 1069.84 138.07C1070.2 137.587 1070.38 136.872 1070.38 135.924ZM1072.92 135.917C1072.92 135.192 1073.07 134.541 1073.35 133.962C1073.63 133.383 1074.03 132.937 1074.54 132.622C1075.05 132.308 1075.63 132.15 1076.28 132.15C1077.29 132.15 1078.1 132.499 1078.72 133.196C1079.35 133.894 1079.66 134.821 1079.66 135.979V136.067C1079.66 136.787 1079.52 137.435 1079.24 138.009C1078.97 138.578 1078.57 139.023 1078.06 139.342C1077.55 139.661 1076.96 139.82 1076.29 139.82C1075.29 139.82 1074.48 139.472 1073.85 138.774C1073.23 138.077 1072.92 137.154 1072.92 136.006V135.917ZM1074.2 136.067C1074.2 136.888 1074.38 137.546 1074.76 138.043C1075.15 138.54 1075.66 138.788 1076.29 138.788C1076.94 138.788 1077.45 138.537 1077.83 138.036C1078.2 137.53 1078.39 136.824 1078.39 135.917C1078.39 135.106 1078.2 134.45 1077.81 133.948C1077.43 133.442 1076.92 133.189 1076.28 133.189C1075.66 133.189 1075.15 133.438 1074.77 133.935C1074.39 134.431 1074.2 135.142 1074.2 136.067ZM1084.82 133.422C1084.63 133.39 1084.42 133.374 1084.2 133.374C1083.37 133.374 1082.8 133.727 1082.51 134.434V139.684H1081.24V132.287H1082.47L1082.49 133.142C1082.91 132.481 1083.5 132.15 1084.26 132.15C1084.5 132.15 1084.69 132.182 1084.82 132.246V133.422ZM1088.04 130.496V132.287H1089.43V133.265H1088.04V137.852C1088.04 138.148 1088.11 138.371 1088.23 138.521C1088.35 138.667 1088.56 138.74 1088.86 138.74C1089 138.74 1089.2 138.713 1089.46 138.658V139.684C1089.13 139.775 1088.8 139.82 1088.49 139.82C1087.92 139.82 1087.5 139.649 1087.21 139.308C1086.92 138.966 1086.78 138.48 1086.78 137.852V133.265H1085.43V132.287H1086.78V130.496H1088.04ZM1095.48 139.684C1095.4 139.538 1095.34 139.278 1095.3 138.904C1094.71 139.515 1094.01 139.82 1093.19 139.82C1092.46 139.82 1091.86 139.615 1091.39 139.205C1090.93 138.79 1090.7 138.266 1090.7 137.633C1090.7 136.863 1090.99 136.266 1091.57 135.842C1092.16 135.413 1092.99 135.199 1094.05 135.199H1095.28V134.618C1095.28 134.176 1095.15 133.825 1094.88 133.565C1094.62 133.301 1094.23 133.169 1093.71 133.169C1093.26 133.169 1092.88 133.283 1092.58 133.511C1092.27 133.739 1092.12 134.014 1092.12 134.338H1090.85C1090.85 133.969 1090.98 133.613 1091.24 133.271C1091.5 132.925 1091.86 132.652 1092.3 132.451C1092.75 132.251 1093.25 132.15 1093.79 132.15C1094.64 132.15 1095.31 132.365 1095.79 132.793C1096.27 133.217 1096.52 133.802 1096.54 134.55V137.954C1096.54 138.633 1096.63 139.173 1096.8 139.574V139.684H1095.48ZM1093.38 138.72C1093.77 138.72 1094.15 138.617 1094.5 138.412C1094.86 138.207 1095.12 137.94 1095.28 137.612V136.095H1094.29C1092.74 136.095 1091.96 136.548 1091.96 137.455C1091.96 137.852 1092.09 138.161 1092.36 138.385C1092.62 138.608 1092.96 138.72 1093.38 138.72ZM1102.1 133.422C1101.91 133.39 1101.7 133.374 1101.48 133.374C1100.65 133.374 1100.09 133.727 1099.79 134.434V139.684H1098.52V132.287H1099.75L1099.78 133.142C1100.19 132.481 1100.78 132.15 1101.54 132.15C1101.79 132.15 1101.97 132.182 1102.1 132.246V133.422Z" fill="#001737"/>
<path d="M1106.3 133.779L1110.28 138.338L1114.26 133.779" stroke="#2B80FF" stroke-width="2" stroke-linecap="round" stroke-linejoin="round"/>
</g>
<path d="M47.875 79.4492H59.4941V83H43.4277V57.4062H47.875V79.4492ZM67.0352 83H62.7637V63.9805H67.0352V83ZM62.5 59.041C62.5 58.3848 62.7051 57.8398 63.1152 57.4062C63.5371 56.9727 64.1348 56.7559 64.9082 56.7559C65.6816 56.7559 66.2793 56.9727 66.7012 57.4062C67.123 57.8398 67.334 58.3848 67.334 59.041C67.334 59.6855 67.123 60.2246 66.7012 60.6582C66.2793 61.0801 65.6816 61.291 64.9082 61.291C64.1348 61.291 63.5371 61.0801 63.1152 60.6582C62.7051 60.2246 62.5 59.6855 62.5 59.041ZM88.3926 73.6836C88.3926 76.6367 87.7305 78.9863 86.4062 80.7324C85.0938 82.4785 83.2832 83.3516 80.9746 83.3516C78.748 83.3516 77.0137 82.5488 75.7715 80.9434L75.5605 83H71.6934V56H75.9648V65.8086C77.1953 64.3555 78.8535 63.6289 80.9395 63.6289C83.2598 63.6289 85.082 64.4902 86.4062 66.2129C87.7305 67.9355 88.3926 70.3438 88.3926 73.4375V73.6836ZM84.1211 73.3145C84.1211 71.252 83.7578 69.7051 83.0312 68.6738C82.3047 67.6426 81.25 67.127 79.8672 67.127C78.0156 67.127 76.7148 67.9355 75.9648 69.5527V77.3926C76.7266 79.0449 78.0391 79.8711 79.9023 79.8711C81.2383 79.8711 82.2695 79.373 82.9961 78.377C83.7227 77.3809 84.0977 75.875 84.1211 73.8594V73.3145ZM100.363 83.3516C97.6562 83.3516 95.459 82.502 93.7715 80.8027C92.0957 79.0918 91.2578 76.8184 91.2578 73.9824V73.4551C91.2578 71.5566 91.6211 69.8633 92.3477 68.375C93.0859 66.875 94.1172 65.709 95.4414 64.877C96.7656 64.0449 98.2422 63.6289 99.8711 63.6289C102.461 63.6289 104.459 64.4551 105.865 66.1074C107.283 67.7598 107.992 70.0977 107.992 73.1211V74.8438H95.5645C95.6934 76.4141 96.2148 77.6562 97.1289 78.5703C98.0547 79.4844 99.2148 79.9414 100.609 79.9414C102.566 79.9414 104.16 79.1504 105.391 77.5684L107.693 79.7656C106.932 80.9023 105.912 81.7871 104.635 82.4199C103.369 83.041 101.945 83.3516 100.363 83.3516ZM99.8535 67.0566C98.6816 67.0566 97.7324 67.4668 97.0059 68.2871C96.291 69.1074 95.834 70.25 95.6348 71.7148H103.773V71.3984C103.68 69.9688 103.299 68.8906 102.631 68.1641C101.963 67.4258 101.037 67.0566 99.8535 67.0566ZM121.281 67.8828C120.719 67.7891 120.139 67.7422 119.541 67.7422C117.584 67.7422 116.266 68.4922 115.586 69.9922V83H111.314V63.9805H115.393L115.498 66.1074C116.529 64.4551 117.959 63.6289 119.787 63.6289C120.396 63.6289 120.9 63.7109 121.299 63.875L121.281 67.8828ZM143.922 74.668C143.664 77.3984 142.656 79.5312 140.898 81.0664C139.141 82.5898 136.803 83.3516 133.885 83.3516C131.846 83.3516 130.047 82.8711 128.488 81.9102C126.941 80.9375 125.746 79.5605 124.902 77.7793C124.059 75.998 123.619 73.9297 123.584 71.5742V69.1836C123.584 66.7695 124.012 64.6426 124.867 62.8027C125.723 60.9629 126.947 59.5449 128.541 58.5488C130.146 57.5527 131.998 57.0547 134.096 57.0547C136.92 57.0547 139.193 57.8223 140.916 59.3574C142.639 60.8926 143.641 63.0605 143.922 65.8613H139.492C139.281 64.0215 138.742 62.6973 137.875 61.8887C137.02 61.0684 135.76 60.6582 134.096 60.6582C132.162 60.6582 130.674 61.3672 129.631 62.7852C128.6 64.1914 128.072 66.2598 128.049 68.9902V71.2578C128.049 74.0234 128.541 76.1328 129.525 77.5859C130.521 79.0391 131.975 79.7656 133.885 79.7656C135.631 79.7656 136.943 79.373 137.822 78.5879C138.701 77.8027 139.258 76.4961 139.492 74.668H143.922ZM146.699 73.3145C146.699 71.4512 147.068 69.7754 147.807 68.2871C148.545 66.7871 149.582 65.6387 150.918 64.8418C152.254 64.0332 153.789 63.6289 155.523 63.6289C158.09 63.6289 160.17 64.4551 161.764 66.1074C163.369 67.7598 164.236 69.9512 164.365 72.6816L164.383 73.6836C164.383 75.5586 164.02 77.2344 163.293 78.7109C162.578 80.1875 161.547 81.3301 160.199 82.1387C158.863 82.9473 157.316 83.3516 155.559 83.3516C152.875 83.3516 150.725 82.4609 149.107 80.6797C147.502 78.8867 146.699 76.502 146.699 73.5254V73.3145ZM150.971 73.6836C150.971 75.6406 151.375 77.1758 152.184 78.2891C152.992 79.3906 154.117 79.9414 155.559 79.9414C157 79.9414 158.119 79.3789 158.916 78.2539C159.725 77.1289 160.129 75.4824 160.129 73.3145C160.129 71.3926 159.713 69.8691 158.881 68.7441C158.061 67.6191 156.941 67.0566 155.523 67.0566C154.129 67.0566 153.021 67.6133 152.201 68.7266C151.381 69.8281 150.971 71.4805 150.971 73.6836ZM179.518 81.1367C178.264 82.6133 176.482 83.3516 174.174 83.3516C172.111 83.3516 170.547 82.748 169.48 81.541C168.426 80.334 167.898 78.5879 167.898 76.3027V63.9805H172.17V76.25C172.17 78.6641 173.172 79.8711 175.176 79.8711C177.25 79.8711 178.65 79.127 179.377 77.6387V63.9805H183.648V83H179.623L179.518 81.1367ZM191.963 63.9805L192.086 66.1777C193.492 64.4785 195.338 63.6289 197.623 63.6289C201.584 63.6289 203.6 65.8965 203.67 70.4316V83H199.398V70.6777C199.398 69.4707 199.135 68.5801 198.607 68.0059C198.092 67.4199 197.242 67.127 196.059 67.127C194.336 67.127 193.053 67.9062 192.209 69.4648V83H187.938V63.9805H191.963ZM213.391 59.3574V63.9805H216.748V67.1445H213.391V77.7617C213.391 78.4883 213.531 79.0156 213.812 79.3438C214.105 79.6602 214.621 79.8184 215.359 79.8184C215.852 79.8184 216.35 79.7598 216.854 79.6426V82.9473C215.881 83.2168 214.943 83.3516 214.041 83.3516C210.76 83.3516 209.119 81.541 209.119 77.9199V67.1445H205.99V63.9805H209.119V59.3574H213.391Z" fill="#001737"/>
<path d="M42.8174 99.0191H1131.19" stroke="#CDD6DC" stroke-linecap="square"/>
</g>
<rect x="41.3262" y="54.5" width="1089.36" height="100.434" stroke="#F1F1F1"/>
<path d="M260 187C260 184.791 261.791 183 264 183H363.543C365.752 183 367.543 184.791 367.543 187V613H260V187Z" fill="#E5E9F2"/>
<path d="M260 565C260 562.791 261.791 561 264 561H363.543C365.752 561 367.543 562.791 367.543 565V613H260V565Z" fill="#0F5BFF"/>
<path d="M477.968 187C477.968 184.791 479.759 183 481.968 183H581.511C583.72 183 585.511 184.791 585.511 187V613H477.968V187Z" fill="#E5E9F2"/>
<path d="M477.968 245C477.968 242.791 479.759 241 481.968 241H581.511C583.72 241 585.511 242.791 585.511 245V613H477.968V245Z" fill="#0F5BFF"/>
<path d="M696.041 187C696.041 184.791 697.832 183 700.041 183H799.584C801.793 183 803.584 184.791 803.584 187V613H696.041V187Z" fill="#E5E9F2"/>
<path d="M696.041 591C696.041 588.791 697.832 587 700.041 587H799.584C801.793 587 803.584 588.791 803.584 591V613H696.041V591Z" fill="#0F5BFF"/>
<path d="M913.117 187C913.117 184.791 914.908 183 917.117 183H1016.66C1018.87 183 1020.66 184.791 1020.66 187V613H913.117V187Z" fill="#E5E9F2"/>
<path d="M913.117 608C913.117 605.791 914.908 604 917.117 604H1016.66C1018.87 604 1020.66 605.791 1020.66 608V613H913.117V608Z" fill="#0F5BFF"/>
<rect x="0.5" y="0.5" width="1175" height="908" stroke="black"/>
<defs>
<filter id="filter0_d" x="-16" y="832" width="1208" height="97" filterUnits="userSpaceOnUse" color-interpolation-filters="sRGB">
<feFlood flood-opacity="0" result="BackgroundImageFix"/>
<feColorMatrix in="SourceAlpha" type="matrix" values="0 0 0 0 0 0 0 0 0 0 0 0 0 0 0 0 0 0 127 0"/>
<feOffset dy="4"/>
<feGaussianBlur stdDeviation="8"/>
<feColorMatrix type="matrix" values="0 0 0 0 0.653548 0 0 0 0 0.686121 0 0 0 0 0.718693 0 0 0 0.330037 0"/>
<feBlend mode="normal" in2="BackgroundImageFix" result="effect1_dropShadow"/>
<feBlend mode="normal" in="SourceGraphic" in2="effect1_dropShadow" result="shape"/>
</filter>
<filter id="filter1_d" x="24.8262" y="601.266" width="1122" height="174" filterUnits="userSpaceOnUse" color-interpolation-filters="sRGB">
<feFlood flood-opacity="0" result="BackgroundImageFix"/>
<feColorMatrix in="SourceAlpha" type="matrix" values="0 0 0 0 0 0 0 0 0 0 0 0 0 0 0 0 0 0 127 0"/>
<feOffset dy="4"/>
<feGaussianBlur stdDeviation="8"/>
<feColorMatrix type="matrix" values="0 0 0 0 0.653548 0 0 0 0 0.686121 0 0 0 0 0.718693 0 0 0 0.330037 0"/>
<feBlend mode="normal" in2="BackgroundImageFix" result="effect1_dropShadow"/>
<feBlend mode="normal" in="SourceGraphic" in2="effect1_dropShadow" result="shape"/>
</filter>
<filter id="filter2_d" x="41.8262" y="613.266" width="1089" height="141" filterUnits="userSpaceOnUse" color-interpolation-filters="sRGB">
<feFlood flood-opacity="0" result="BackgroundImageFix"/>
<feColorMatrix in="SourceAlpha" type="matrix" values="0 0 0 0 0 0 0 0 0 0 0 0 0 0 0 0 0 0 127 0"/>
<feOffset/>
<feColorMatrix type="matrix" values="0 0 0 0 0.352764 0 0 0 0 0.441256 0 0 0 0 0.81715 0 0 0 0.107337 0"/>
<feBlend mode="normal" in2="BackgroundImageFix" result="effect1_dropShadow"/>
<feBlend mode="normal" in="SourceGraphic" in2="effect1_dropShadow" result="shape"/>
</filter>
<clipPath id="clip0">
</clipPath>
<clipPath id="clip1">
</clipPath>
<clipPath id="clip2">
<rect width="1090" height="142" fill="white" transform="translate(40.8262 613.266)"/>
</clipPath>
<clipPath id="clip3">
<rect width="217" height="139" fill="white" transform="translate(42.8262 614)"/>
</clipPath>
<clipPath id="clip4">
</clipPath>
<clipPath id="clip5">
<rect width="86.6318" height="38.75" fill="white" transform="translate(1042.57 116.684)"/>
</clipPath>
</defs>
</svg>
